<svg xmlns="http://www.w3.org/2000/svg" width="118.727" height="160" viewBox="0 0 118.727 160"><defs><style>.a{fill:#a5c6e3;}.b{fill:#d2e3f1;}.c{fill:#1d71b8;}.d{fill:#4a8dc6;}.e{fill:#95341d;}.f{fill:#ab5d4a;}.g{fill:#fff;}</style></defs><g transform="translate(-66.036 0)"><path class="a" d="M274.254,34.964V138.183a51.612,51.612,0,0,0,0-103.219Z" transform="translate(-143.149 -24.037)"/><path class="b" d="M159.533,34.956c22.558.358,40.757,23.329,40.757,51.609s-18.2,51.251-40.757,51.609c-.179,0-.354,0-.533,0a51.613,51.613,0,1,1,0-103.226C159.179,34.952,159.354,34.952,159.533,34.956Z" transform="translate(-28.429 -24.029)"/><path class="c" d="M272.547,145.059v34.409a17.2,17.2,0,0,0,0-34.409Z" transform="translate(-141.976 -99.727)"/><path class="d" d="M234.7,145.059c3.8,0,6.882,7.7,6.882,17.2s-3.08,17.2-6.882,17.2a17.2,17.2,0,1,1,0-34.408Z" transform="translate(-104.127 -99.727)"/><path class="e" d="M271.171,431.334h-6.193l-3.441,15.746,13.763-3.441Z" transform="translate(-134.406 -296.541)"/><path class="f" d="M243.644,431.334l-4.129,12.305,10.323,3.441V431.334Z" transform="translate(-119.266 -296.541)"/><path class="e" d="M318.655,470.711H308.332l10.323,10.323h10.323A10.323,10.323,0,0,0,318.655,470.711Z" transform="translate(-166.578 -323.613)"/><path class="f" d="M213.71,470.711H181.022A10.323,10.323,0,0,0,170.7,481.034h53.333A10.323,10.323,0,0,0,213.71,470.711Z" transform="translate(-71.955 -323.613)"/><g transform="translate(93.581 22.948)"><circle class="g" cx="2.581" cy="2.581" r="2.581" transform="translate(34.474)"/><circle class="g" cx="2.581" cy="2.581" r="2.581" transform="translate(44.797 6.882)"/><circle class="g" cx="2.581" cy="2.581" r="2.581" transform="translate(24.151 73.555)"/><circle class="g" cx="2.581" cy="2.581" r="2.581" transform="translate(13.829 66.673)"/><circle class="g" cx="2.581" cy="2.581" r="2.581" transform="translate(63.949 47.353)"/><circle class="g" cx="2.581" cy="2.581" r="2.581" transform="translate(0 37.006)"/></g><path d="M180.27,40.927a54.145,54.145,0,0,0-68.916-29.061L106.869,1.553a2.581,2.581,0,1,0-4.733,2.058l.365.84a64.508,64.508,0,0,0,25.49,122.542v5.219h-3.613a2.581,2.581,0,0,0-2.447,1.76l-3.538,10.545h-9.326a12.925,12.925,0,0,0-12.644,10.323H95.3a2.581,2.581,0,1,0,0,5.161h70.537a2.581,2.581,0,1,0,0-5.161h-1.12a12.925,12.925,0,0,0-12.644-10.323H142.75l-3.538-10.545a2.58,2.58,0,0,0-2.447-1.76h-3.613V127a64.1,64.1,0,0,0,20.756-4.319l.365.84a2.581,2.581,0,0,0,4.733-2.058l-4.484-10.313A54.26,54.26,0,0,0,180.27,40.927ZM137.306,144.518h-6.734a2.581,2.581,0,1,0,0,5.161h21.505a7.755,7.755,0,0,1,7.3,5.161H101.768a7.754,7.754,0,0,1,7.3-5.161h11.183a2.581,2.581,0,0,0,2.447-1.76l3.538-10.545h8.675Zm37.132-103.87-26.91,11.7a19.737,19.737,0,0,0-22.411-8.827l-8.643-19.879a2.581,2.581,0,1,0-4.733,2.058l8.643,19.879a19.773,19.773,0,0,0-8.828,22.412l-26.916,11.7a49.027,49.027,0,0,1,89.8-39.047ZM144.177,67.9A14.619,14.619,0,0,1,118.4,70.642l26.4-11.479A14.518,14.518,0,0,1,144.177,67.9ZM116.965,57.177a14.619,14.619,0,0,1,25.777-2.746l-26.4,11.479A14.513,14.513,0,0,1,116.965,57.177Zm-3.352,15.547a19.74,19.74,0,0,0,22.411,8.828l11.7,26.919A48.976,48.976,0,0,1,86.7,84.424ZM76.139,86.2A59.426,59.426,0,0,1,104.56,9.187l2.059,4.736A54.2,54.2,0,0,0,130.6,116.743a53.694,53.694,0,0,0,19.192-3.536l2.059,4.736A59.425,59.425,0,0,1,76.139,86.2Zm76.323,20.206-11.7-26.916a19.773,19.773,0,0,0,8.828-22.412l26.916-11.7A49.1,49.1,0,0,1,152.462,106.411Z" transform="translate(0 0)"/></g></svg>