<svg xmlns="http://www.w3.org/2000/svg" width="160" height="160" viewBox="0 0 160 160"><defs><style>.a{fill:#a5c6e3;}.b{fill:#4a8dc6;}.c{fill:#77aad4;}.d{fill:#d2e3f1;}.e{fill:#fff;}.f{fill:#fe4382;}.g{fill:#fb7a5b;}</style></defs><g transform="translate(0)"><path class="a" d="M184.278,340.067l-10.859,17.084,32.688,10.322-6.882-27.407Z" transform="translate(-119.226 -233.796)"/><path class="b" d="M270.947,340.067l10.859,17.084L256,367.474l8.97-27.407Z" transform="translate(-176 -233.796)"/><path class="c" d="M264.97,340.067l6.513,17.084L256,367.474V340.067Z" transform="translate(-176 -233.796)"/><path class="a" d="M258.711,41.29V51.613l-13.722,6.882,3.441-17.2Z" transform="translate(-168.43 -28.387)"/><path class="d" d="M233.381,41.29v17.2L223.1,51.613V41.29Z" transform="translate(-153.382 -28.387)"/><path class="b" d="M258.711,74.323V84.645H248.43l-3.441-5.161,3.441-5.161Z" transform="translate(-168.43 -51.097)"/><rect class="c" width="10.281" height="10.322" transform="translate(69.718 23.226)"/><path class="d" d="M321.147,174.807l-62.978,52.986a83.048,83.048,0,0,0,76.741-52.986Z" transform="translate(-177.492 -120.18)"/><path class="e" d="M8.258,174.806A83.046,83.046,0,0,0,85.677,227.8c.227,0,.454,0,.678,0,28.7-.341,53.158-22.224,62.978-52.986H8.258Z" transform="translate(-5.678 -120.179)"/><path class="f" d="M326.193,394.736V428.8H315.871l-10.323-17.032,10.323-17.032Z" transform="translate(-210.065 -271.381)"/><path class="g" d="M202.323,394.736v10.322l-3.441,5.161,3.441,5.161V428.8H140.387V394.736Z" transform="translate(-96.516 -271.381)"/><g transform="translate(54.193 133.677)"><rect class="e" width="10.322" height="10.322"/><rect class="e" width="10.322" height="10.322" transform="translate(20.645)"/><rect class="e" width="10.322" height="10.322" transform="translate(41.29)"/></g><path d="M159.548,53.169a2.58,2.58,0,0,0-2.129-1.123h-30l-34.553-30V12.9a2.58,2.58,0,0,0-2.581-2.581h-7.7V2.581a2.581,2.581,0,1,0-5.161,0v7.742h-7.7A2.58,2.58,0,0,0,67.137,12.9v9.146l-34.553,30h-30A2.581,2.581,0,0,0,.174,55.561,85.481,85.481,0,0,0,31.1,94.864a84.991,84.991,0,0,0,29.76,13.187l-8.086,12.722H40.43a2.581,2.581,0,1,0,0,5.161h.86v31.484A2.58,2.58,0,0,0,43.871,160h72.258a2.58,2.58,0,0,0,2.581-2.581V125.935h.86a2.581,2.581,0,0,0,0-5.161H107.224l-8.086-12.722A84.98,84.98,0,0,0,128.9,94.865a85.478,85.478,0,0,0,30.927-39.3A2.579,2.579,0,0,0,159.548,53.169ZM72.3,30.968V25.807h5.121v5.161ZM82.58,25.807H87.7v5.161H82.58ZM87.7,15.484v5.161H72.3V15.484Zm-20.564,13.4v4.665a2.58,2.58,0,0,0,2.581,2.581H90.282a2.58,2.58,0,0,0,2.581-2.581V28.884l26.68,23.162H82.58V43.871a2.581,2.581,0,0,0-5.161,0v8.176H40.457Zm-.83,80.222a86.2,86.2,0,0,0,11.112,1.049v10.619H58.891Zm47.241,45.732h-67.1v-28.9h67.1Zm-12.44-34.065H82.58V110.155a86.258,86.258,0,0,0,11.112-1.049ZM80,105.036A79.916,79.916,0,0,1,6.444,57.208H153.555A79.917,79.917,0,0,1,80,105.036Z" transform="translate(0)"/><path d="M178.065,419.51H167.743a2.58,2.58,0,0,0-2.581,2.581v10.323a2.581,2.581,0,1,0,5.161,0v-7.742h5.161v7.742a2.581,2.581,0,1,0,5.161,0V422.091A2.581,2.581,0,0,0,178.065,419.51Z" transform="translate(-113.549 -288.413)"/><path d="M231.226,422.091v10.322a2.581,2.581,0,1,0,5.161,0v-7.742h5.161v7.742a2.581,2.581,0,1,0,5.161,0V422.091a2.58,2.58,0,0,0-2.581-2.581H233.807A2.58,2.58,0,0,0,231.226,422.091Z" transform="translate(-158.968 -288.413)"/><path d="M299.871,434.994a2.58,2.58,0,0,0,2.581-2.581v-7.742h5.161v7.742a2.581,2.581,0,1,0,5.161,0V422.091a2.58,2.58,0,0,0-2.581-2.581H299.871a2.58,2.58,0,0,0-2.581,2.581v10.322A2.58,2.58,0,0,0,299.871,434.994Z" transform="translate(-204.387 -288.413)"/></g></svg>