<svg xmlns="http://www.w3.org/2000/svg" width="160" height="160" viewBox="0 0 160 160"><defs><style>.a{fill:#d2e3f1;}.b{fill:#fff;}.c{fill:#a5c6e3;}.d{fill:#0e3759;}.e{fill:#185e98;}.f{fill:#77aad4;}.g{fill:#1d71b8;}.h{fill:#4a8dc6;}</style></defs><path class="a" d="M256.447,8.269,256,32.7l26.894-10.323A32.647,32.647,0,0,0,256.447,8.269Z" transform="translate(-176 -5.685)"/><path class="b" d="M219.588,22.366,196.834,32.688,169.94,22.366A32.644,32.644,0,0,1,196.834,8.258c.148,0,.3,0,.447,0C206.533,8.437,214.678,13.977,219.588,22.366Z" transform="translate(-116.834 -5.677)"/><path class="c" d="M283.131,53.747,323.1,111.553l-67.1,17.2,22.958-75.011c-.065-.113-.131-.231-.2-.344h4.139C282.976,53.516,283.052,53.633,283.131,53.747Z" transform="translate(-176 -36.715)"/><path class="a" d="M131.344,53.746l33.817,57.807-56.774,17.2-67.1-17.2L81.256,53.746c.079-.113.155-.231.237-.344h49.648C131.213,53.516,131.279,53.633,131.344,53.746Z" transform="translate(-28.387 -36.714)"/><path class="d" d="M300.731,151.4v17.2H290.409l-6.882-8.6,6.882-8.6Z" transform="translate(-194.925 -104.086)"/><path class="e" d="M267.7,151.4v17.2H257.377l-6.882-8.6,6.882-8.6Z" transform="translate(-172.215 -104.086)"/><g transform="translate(2.581 74.838)"><path class="f" d="M18.581,239.484,28.9,270.452,8.258,260.129V249.807A10.353,10.353,0,0,1,18.581,239.484Z" transform="translate(-8.258 -239.484)"/><path class="f" d="M458.322,249.806v10.322l-20.645,10.323L448,239.483A10.353,10.353,0,0,1,458.322,249.806Z" transform="translate(-303.484 -239.483)"/></g><g transform="translate(2.581 95.484)"><rect class="c" width="20.645" height="54.71"/><rect class="c" width="20.645" height="54.71" transform="translate(134.193)"/></g><path class="g" d="M404.645,272.516l10.323,72.258H425.29V282.839Z" transform="translate(-278.193 -187.355)"/><g transform="translate(12.903 85.161)"><path class="h" d="M346.838,272.516v72.258H315.871l-10.323-72.258Z" transform="translate(-222.967 -272.516)"/><path class="h" d="M92.9,272.516,82.58,344.774H41.29V282.839Z" transform="translate(-41.29 -272.516)"/></g><path class="a" d="M425.29,239.484v20.645H414.967l-10.323-10.322,10.323-10.322Z" transform="translate(-278.193 -164.645)"/><rect class="b" width="123.871" height="20.645" transform="translate(12.903 74.839)"/><path class="c" d="M282.839,272.516H272.516l10.323,72.258h10.323V282.839A10.353,10.353,0,0,0,282.839,272.516Z" transform="translate(-187.355 -187.355)"/><path class="a" d="M214.709,282.839v61.936h-41.29V282.839a10.353,10.353,0,0,1,10.323-10.323h20.645A10.353,10.353,0,0,1,214.709,282.839Z" transform="translate(-119.226 -187.355)"/><path class="h" d="M234.666,151.4v17.2H224.344l-6.882-8.6,6.882-8.6Z" transform="translate(-149.505 -104.086)"/><rect class="e" width="20.645" height="17.204" transform="translate(54.193 47.312)"/><path class="d" d="M256,322.065V342.71a10.323,10.323,0,0,0,0-20.645Z" transform="translate(-176 -221.42)"/><path class="e" d="M233.29,322.065c1.9,0,3.441,4.621,3.441,10.323s-1.542,10.323-3.441,10.323a10.323,10.323,0,0,1,0-20.645Z" transform="translate(-153.29 -221.42)"/><circle cx="2.581" cy="2.581" r="2.581" transform="translate(77.419 129.032)"/><circle cx="2.581" cy="2.581" r="2.581" transform="translate(113.548 61.936)"/><circle cx="2.581" cy="2.581" r="2.581" transform="translate(113.548 51.613)"/><path d="M227.613,313.81a12.9,12.9,0,1,0,12.9,12.9A12.918,12.918,0,0,0,227.613,313.81Zm0,20.645a7.742,7.742,0,1,1,7.742-7.742A7.751,7.751,0,0,1,227.613,334.455Z" transform="translate(-147.613 -215.744)"/><path d="M134.71,330.323a2.58,2.58,0,0,0-2.581,2.581v41.29a2.581,2.581,0,0,0,5.161,0V332.9A2.58,2.58,0,0,0,134.71,330.323Z" transform="translate(-90.839 -227.097)"/><path d="M101.678,330.323A2.58,2.58,0,0,0,99.1,332.9v41.29a2.581,2.581,0,0,0,5.161,0V332.9A2.581,2.581,0,0,0,101.678,330.323Z" transform="translate(-68.129 -227.097)"/><path d="M68.646,330.323a2.58,2.58,0,0,0-2.581,2.581v41.29a2.581,2.581,0,0,0,5.161,0V332.9A2.581,2.581,0,0,0,68.646,330.323Z" transform="translate(-45.42 -227.097)"/><path d="M365.936,330.323a2.58,2.58,0,0,0-2.581,2.581v41.29a2.581,2.581,0,0,0,5.161,0V332.9A2.58,2.58,0,0,0,365.936,330.323Z" transform="translate(-249.807 -227.097)"/><path d="M398.968,330.323a2.58,2.58,0,0,0-2.581,2.581v41.29a2.581,2.581,0,0,0,5.161,0V332.9A2.58,2.58,0,0,0,398.968,330.323Z" transform="translate(-272.516 -227.097)"/><path d="M432,330.323a2.58,2.58,0,0,0-2.581,2.581v41.29a2.581,2.581,0,0,0,5.161,0V332.9A2.58,2.58,0,0,0,432,330.323Z" transform="translate(-295.226 -227.097)"/><path d="M148.5,72.336,109.272,15.591c-.073-.109-.15-.214-.224-.322-.014-.022-.03-.043-.045-.064a35.265,35.265,0,0,0-58.011.006c-.013.018-.026.037-.038.055-.069.1-.14.2-.208.3L11.5,72.336A12.921,12.921,0,0,0,0,85.161v65.032a2.58,2.58,0,0,0,2.581,2.581h7.742v4.645A2.58,2.58,0,0,0,12.9,160H147.1a2.58,2.58,0,0,0,2.581-2.581v-4.645h7.742A2.58,2.58,0,0,0,160,150.193V85.161A12.921,12.921,0,0,0,148.5,72.336Zm6.335,12.825V92.9h-5.161V77.863A7.755,7.755,0,0,1,154.839,85.161ZM108.127,92.9A12.925,12.925,0,0,0,95.484,82.581H64.516A12.925,12.925,0,0,0,51.872,92.9H15.484V77.419h12.9a2.581,2.581,0,1,0,0-5.161H17.824L54.459,19.269H105.54l36.635,52.989H38.709a2.581,2.581,0,1,0,0,5.161H144.516V92.9H108.127ZM56.774,95.484a7.751,7.751,0,0,1,7.742-7.742H95.484a7.751,7.751,0,0,1,7.742,7.742v59.355H56.774Zm44.638-81.376H58.583a30.1,30.1,0,0,1,42.829,0ZM10.323,77.863V92.9H5.161V85.161A7.755,7.755,0,0,1,10.323,77.863Zm-5.161,69.75V98.064h5.161v49.548ZM15.484,98.064H51.613v56.774H15.484Zm129.033,56.774H108.387V98.064h36.129Zm5.161-7.226V98.064h5.161v49.548Z"/><path d="M167.742,165.506h51.613a2.58,2.58,0,0,0,2.581-2.581v-17.2a2.58,2.58,0,0,0-2.581-2.581H167.742a2.58,2.58,0,0,0-2.581,2.581v17.2A2.581,2.581,0,0,0,167.742,165.506Zm23.226-5.161V148.3h5.161v12.043Zm25.807,0H201.29V148.3h15.484ZM170.322,148.3h15.484v12.043H170.322Z" transform="translate(-113.548 -98.409)"/></svg>