<svg xmlns="http://www.w3.org/2000/svg" width="98.064" height="160" viewBox="0 0 98.064 160"><defs><style>.a{fill:#d2e3f1;}.b{fill:#fff;}.c{fill:#a5c6e3;}.d{fill:#fe4382;}.e{fill:#fb7a5b;}.f{fill:#0e3759;}.g{fill:#185e98;}.h{fill:#4a8dc6;}.i{fill:#77aad4;}</style></defs><g transform="translate(-99.1)"><g transform="translate(105.121 26.667)"><rect class="a" width="13.763" height="24.086" transform="translate(0 106.667)"/><rect class="a" width="13.763" height="24.086" transform="translate(72.258 106.667)"/><path class="a" d="M132.818,85.334l10.323,17.2-13.763,3.441Z" transform="translate(-125.936 -85.334)"/></g><path class="b" d="M117.677,85.334v20.645l-10.322-3.441Z" transform="translate(-5.675 -58.667)"/><path class="c" d="M135.57,140.388v86.021h-17.2l6.882-86.021Z" transform="translate(-13.245 -96.517)"/><g transform="translate(101.68 26.667)"><rect class="a" width="10.323" height="86.022" transform="translate(0 17.204)"/><path class="a" d="M364.043,85.334l10.322,17.2L360.6,105.979Z" transform="translate(-281.462 -85.334)"/></g><path class="b" d="M348.9,85.334v20.645l-10.323-3.441Z" transform="translate(-164.643 -58.667)"/><path class="c" d="M366.8,140.388v86.021h-17.2l6.882-86.021Z" transform="translate(-172.213 -96.517)"/><rect class="a" width="10.323" height="86.022" transform="translate(173.938 43.871)"/><path class="d" d="M256,8.259l15.484,122.495h10.323v-81.2C281.807,31.688,271.216,15.165,256,8.259Z" transform="translate(-107.869 -5.678)"/><path class="e" d="M199.226,8.259c9.129,6.906,15.484,23.429,15.484,41.29v81.2H173.42v-81.2C173.42,31.688,184.011,15.165,199.226,8.259Z" transform="translate(-51.095 -5.678)"/><path class="f" d="M256.345,426.667v17.2H240.861l-6.882-17.2Z" transform="translate(-92.729 -293.334)"/><rect class="g" width="15.484" height="17.204" transform="translate(132.648 133.333)"/><path class="h" d="M331.551,312.9l-22.28-21.388a14.068,14.068,0,0,1-3.713-8.378l-.01,41.414,20.645,10.323h10.323V324.545A18.554,18.554,0,0,0,331.551,312.9Z" transform="translate(-141.933 -194.653)"/><g transform="translate(101.679 88.478)"><path class="i" d="M311.048,324.545v10.323H290.4l-6.884-25.462s6.881-26.336,6.884-26.275a17.964,17.964,0,0,0,2.481,8.378L307.738,312.9C309.559,315.52,311.048,320.76,311.048,324.545Z" transform="translate(-228.467 -283.131)"/><path class="i" d="M138.322,283.131c0,.066-.007.136-.01.2v-.2a14.064,14.064,0,0,1-3.713,8.378L112.319,312.9a18.553,18.553,0,0,0-4.965,11.647v10.323h30.968l6.884-25.463S138.326,283.07,138.322,283.131Z" transform="translate(-107.354 -283.131)"/></g><path class="a" d="M256,118.366l5.161,103.226h10.323V142.256A26.144,26.144,0,0,0,256,118.366Z" transform="translate(-107.869 -81.377)"/><path class="b" d="M221.935,118.366c3.042,4.143,5.161,13.172,5.161,23.89v79.336H206.451V142.256A26.146,26.146,0,0,1,221.935,118.366Z" transform="translate(-73.804 -81.377)"/><path d="M196.8,42.543l-10.322-17.2a2.581,2.581,0,0,0-4.426,0l-6.231,10.384C173.164,20.241,163.134,6.554,149.2.231a2.58,2.58,0,0,0-2.133,0C133.129,6.554,123.1,20.241,120.447,35.724l-6.231-10.385a2.58,2.58,0,0,0-4.425,0l-10.323,17.2a2.582,2.582,0,0,0-.368,1.328v96.344a2.581,2.581,0,0,0,2.581,2.581h.86v12.043h-.86a2.581,2.581,0,1,0,0,5.161h20.645a2.581,2.581,0,1,0,0-5.161h-.86V142.8h8.6v7.742a2.581,2.581,0,0,0,2.581,2.581h12.9v4.3a2.581,2.581,0,0,0,5.161,0v-4.3h12.9a2.58,2.58,0,0,0,2.581-2.581V142.8h8.6v12.043h-.86a2.581,2.581,0,1,0,0,5.161h20.645a2.581,2.581,0,1,0,0-5.161h-.86V142.8h.86a2.58,2.58,0,0,0,2.581-2.581V43.871A2.59,2.59,0,0,0,196.8,42.543ZM184.26,31.683l5.764,9.608H178.5Zm-72.258,0,5.764,9.608H106.238ZM104.26,46.452h15.484v41.51a2.581,2.581,0,0,0,5.161,0V43.871c0-16.287,9.287-31.575,23.226-38.436,13.939,6.861,23.226,22.149,23.226,38.436V97.137l-2.231-2.142a11.48,11.48,0,0,1-2.93-6.874V60.879a28.55,28.55,0,0,0-17-26.239,2.58,2.58,0,0,0-2.133,0,28.549,28.549,0,0,0-17,26.239V88.121a11.478,11.478,0,0,1-2.93,6.874l-22.28,21.389q-.3.291-.6.613V46.452ZM116.3,154.839h-8.6V142.8h8.6Zm-12.043-17.2v-7.742a16.072,16.072,0,0,1,4.171-9.786l21.635-20.77V119.57a2.581,2.581,0,1,0,5.161,0V60.879a23.407,23.407,0,0,1,12.9-21.025,23.407,23.407,0,0,1,12.9,21.025v76.756H150.712v-7.742a2.581,2.581,0,1,0-5.161,0v7.742H135.228v-7.742a2.581,2.581,0,1,0-5.161,0v7.742Zm30.968,10.322V142.8h10.322v5.161Zm25.807,0H150.712V142.8h10.323Zm5.161-48.62,21.636,20.77A16.07,16.07,0,0,1,192,129.893v7.742H166.2Zm22.366,55.5h-8.6V142.8h8.6Zm2.844-38.455-14.888-14.292V46.452H192V117Q191.709,116.674,191.406,116.383Z"/><path d="M233.807,191.716h10.322a2.581,2.581,0,0,0,0-5.161H233.807a2.581,2.581,0,0,0,0,5.161Z" transform="translate(-90.837 -128.257)"/></g></svg>