<svg xmlns="http://www.w3.org/2000/svg" width="140" height="140" viewBox="0 0 140 140"><defs><style>.a{fill:#77aad4;}.b{fill:#a5c6e3;}.c{fill:#d2e3f1;}.d{fill:#fff;}.e{fill:#ff2796;}.f{fill:#fd5f6e;}.g{fill:#fa9647;}.h{fill:#f9b233;}</style></defs><rect class="a" width="15.054" height="18.065" transform="translate(104.624 112.151)"/><rect class="b" width="69.247" height="18.065" transform="translate(41.398 112.151)"/><g transform="translate(2.258 56.452)"><rect class="a" width="27.097" height="18.065" transform="translate(18.065 55.699)"/><path class="a" d="M27.828,206.452V248.6H17.29a9.059,9.059,0,0,1-9.032-9.032V215.484a9.059,9.059,0,0,1,9.032-9.032H27.828Z" transform="translate(-8.258 -206.452)"/><path class="a" d="M451.742,215.484V239.57a9.059,9.059,0,0,1-9.032,9.032H432.172v-42.15H442.71A9.059,9.059,0,0,1,451.742,215.484Z" transform="translate(-316.258 -206.452)"/></g><path class="c" d="M258.136,8.269l44.577,114.406h9.032V62.46A54.194,54.194,0,0,0,258.136,8.269Z" transform="translate(-187.552 -6.008)"/><path class="d" d="M112.584,8.261c-.2,0-.388,0-.584,0A54.194,54.194,0,0,0,57.806,62.452v60.215h99.355V62.452C157.161,32.757,137.257,8.637,112.584,8.261Z" transform="translate(-42 -6)"/><path class="b" d="M430.71,459.7v12.043h-9.033l-6.021-6.022,6.021-6.021Z" transform="translate(-302 -334)"/><path class="c" d="M149.677,459.7v12.043H41.29V459.7H149.677Z" transform="translate(-30 -334)"/><path class="e" d="M293.833,116.362h-7.566L256,158.949l45.161,6.822V141A44.91,44.91,0,0,0,293.833,116.362Z" transform="translate(-186 -84.544)"/><path class="f" d="M166.267,116.362h-68.1A44.91,44.91,0,0,0,90.839,141v24.775l81.29-6.822V141A53.31,53.31,0,0,0,166.267,116.362Z" transform="translate(-66 -84.544)"/><path class="g" d="M373.161,278.931v9.439h-9.032l-9.032-8.131,9.032-8.131A68.205,68.205,0,0,1,373.161,278.931Z" transform="translate(-258 -197.703)"/><path class="h" d="M172.129,244.4v16.261H90.839v-9.439a67.773,67.773,0,0,1,81.29-6.822Z" transform="translate(-66 -170)"/><circle class="e" cx="6.022" cy="6.022" r="6.022" transform="translate(85.054 43.861)"/><path d="M137.742,29.56a2.258,2.258,0,0,0-2.258,2.258v24.64a11.231,11.231,0,0,0-6.774-2.264H126.4a56.448,56.448,0,0,0-112.805,0H11.29A11.3,11.3,0,0,0,0,65.484V89.57a11.3,11.3,0,0,0,11.29,11.29h2.258v13.548H11.29a2.258,2.258,0,0,0,0,4.516h6.774v4.516H11.29A2.258,2.258,0,0,0,9.032,125.7v12.043A2.258,2.258,0,0,0,11.29,140H128.71a2.258,2.258,0,0,0,2.258-2.258V125.7a2.258,2.258,0,0,0-2.258-2.258h-6.774v-4.516h6.774a2.258,2.258,0,0,0,0-4.516h-2.258V100.86h2.258A11.3,11.3,0,0,0,140,89.57V31.818A2.258,2.258,0,0,0,137.742,29.56ZM22.581,118.925H45.162v4.516H22.581Zm103.871,16.559H13.548v-7.527h112.9v7.527Zm-9.032-12.043H49.677v-4.516h67.742ZM135.484,89.57a6.782,6.782,0,0,1-6.774,6.774h-2.258V74.817a2.258,2.258,0,0,0-4.516,0v39.591H18.065V74.817a2.258,2.258,0,0,0-4.516,0V96.344H11.29A6.782,6.782,0,0,1,4.516,89.57V65.484A6.782,6.782,0,0,1,11.29,58.71h2.258v7.075a2.258,2.258,0,0,0,4.516,0V56.452a51.935,51.935,0,0,1,103.871,0v9.333a2.258,2.258,0,0,0,4.516,0V58.71h2.258a6.782,6.782,0,0,1,6.774,6.774V89.57Z"/><path d="M167.832,108.106H92.167a2.259,2.259,0,0,0-1.891,1.023A47.176,47.176,0,0,0,82.58,135v34.213a2.258,2.258,0,0,0,2.258,2.258h90.323a2.258,2.258,0,0,0,2.258-2.258V135a47.176,47.176,0,0,0-7.7-25.868A2.257,2.257,0,0,0,167.832,108.106Zm5.071,58.847H87.1V135a42.664,42.664,0,0,1,6.313-22.375H166.59A42.662,42.662,0,0,1,172.9,135Z" transform="translate(-59.999 -78.546)"/><path d="M116.664,236.5a2.258,2.258,0,1,0,2.412,3.818,65.513,65.513,0,0,1,69.846,0,2.258,2.258,0,0,0,2.412-3.818,70.031,70.031,0,0,0-74.67,0Z" transform="translate(-83.999 -164)"/><path d="M311.075,168.707a8.28,8.28,0,1,0-8.28-8.28A8.289,8.289,0,0,0,311.075,168.707Zm0-12.043a3.763,3.763,0,1,1-3.763,3.763A3.767,3.767,0,0,1,311.075,156.664Z" transform="translate(-219.999 -110.545)"/></svg>