<svg xmlns="http://www.w3.org/2000/svg" width="140" height="140" viewBox="0 0 140 140"><defs><style>.a{fill:#134a79;}.b{fill:#1d71b8;}.c{fill:#77aad4;}.d{fill:#a5c6e3;}.e{fill:#d2e3f1;}.f{fill:#fff;}.g{fill:#fb7a5b;}.h{fill:#fcd999;}.i{fill:#feeccc;}</style></defs><path class="a" d="M258.775,8.28V143.752a67.74,67.74,0,0,0,0-135.472Z" transform="translate(-188.016 -6.016)"/><path class="b" d="M76.759,8.264C108.835,8.734,134.71,38.88,134.71,76s-25.874,67.266-57.951,67.736c-.253,0-.506.006-.759.006A67.742,67.742,0,0,1,76,8.258C76.253,8.258,76.506,8.261,76.759,8.264Z" transform="translate(-6 -6)"/><path class="c" d="M208,74.323,189.935,124,208,173.678a49.677,49.677,0,0,0,0-99.355Z" transform="translate(-138 -54)"/><path class="d" d="M74.323,124A49.734,49.734,0,0,0,124,173.678V74.323A49.734,49.734,0,0,0,74.323,124Z" transform="translate(-54 -54)"/><path class="e" d="M257.5,107.366V188.65a40.644,40.644,0,0,0,0-81.284Z" transform="translate(-187.088 -78.008)"/><path class="f" d="M148.409,107.358c17.243.283,31.2,18.4,31.2,40.642s-13.961,40.359-31.2,40.642c-.139,0-.274,0-.409,0a40.645,40.645,0,1,1,0-81.29C148.135,107.355,148.271,107.355,148.409,107.358Z" transform="translate(-78 -78)"/><g transform="translate(47.397 45.262)"><path class="g" d="M181.353,167.2a4.51,4.51,0,0,0-8.014,2.854l.022,25.42,13.993-20.889Z" transform="translate(-173.339 -165.53)"/><path class="g" d="M298.424,165.793a4.515,4.515,0,0,0-5.016,1.409l-6,7.385L301.4,195.475v-25.42A4.494,4.494,0,0,0,298.424,165.793Z" transform="translate(-256.216 -165.53)"/></g><path class="h" d="M256,192.457l.178,48.985a11.966,11.966,0,0,0,8-3.2l7.157-6.63A22.577,22.577,0,0,0,256,192.457Z" transform="translate(-186 -139.832)"/><path class="i" d="M209.547,215.038c0,6.551-1.674,12.446-4.348,16.571l-4.293,6.63c-1.249,1.927-2.905,3.128-4.73,3.2-.06,0-.117,0-.178,0a11.986,11.986,0,0,1-8.177-3.206l-7.157-6.63A22.577,22.577,0,0,1,196,192.457C203.481,192.457,209.547,202.567,209.547,215.038Z" transform="translate(-125.999 -139.832)"/><path d="M119.5,20.5A70,70,0,1,0,20.5,119.5,70,70,0,1,0,119.5,20.5ZM70,135.484A65.484,65.484,0,1,1,135.484,70,65.558,65.558,0,0,1,70,135.484Z" transform="translate(0 0)"/><path d="M118,66.065A51.935,51.935,0,1,0,169.936,118,51.994,51.994,0,0,0,118,66.065Zm0,99.355A47.419,47.419,0,1,1,165.42,118,47.473,47.473,0,0,1,118,165.42Z" transform="translate(-48 -48)"/><circle cx="2.258" cy="2.258" r="2.258" transform="translate(67.742 9.032)"/><circle cx="2.258" cy="2.258" r="2.258" transform="translate(45.276 13.5)"/><circle cx="2.258" cy="2.258" r="2.258" transform="translate(26.227 26.227)"/><circle cx="2.258" cy="2.258" r="2.258" transform="translate(13.5 45.276)"/><circle cx="2.258" cy="2.258" r="2.258" transform="translate(9.032 67.742)"/><circle cx="2.258" cy="2.258" r="2.258" transform="translate(13.5 90.208)"/><circle cx="2.258" cy="2.258" r="2.258" transform="translate(26.227 109.257)"/><circle cx="2.258" cy="2.258" r="2.258" transform="translate(45.276 121.984)"/><circle cx="2.258" cy="2.258" r="2.258" transform="translate(67.742 126.452)"/><circle cx="2.258" cy="2.258" r="2.258" transform="translate(90.208 121.984)"/><circle cx="2.258" cy="2.258" r="2.258" transform="translate(109.257 109.257)"/><circle cx="2.258" cy="2.258" r="2.258" transform="translate(121.984 90.208)"/><circle cx="2.258" cy="2.258" r="2.258" transform="translate(126.452 67.742)"/><circle cx="2.258" cy="2.258" r="2.258" transform="translate(121.984 45.276)"/><circle cx="2.258" cy="2.258" r="2.258" transform="translate(109.257 26.227)"/><circle cx="2.258" cy="2.258" r="2.258" transform="translate(90.208 13.5)"/><path d="M236.731,296.568a2.258,2.258,0,0,0,2.258,2.258h.753v2.258a2.258,2.258,0,1,0,4.516,0v-2.258h.753a2.258,2.258,0,0,0,0-4.516h-6.022A2.258,2.258,0,0,0,236.731,296.568Z" transform="translate(-172 -213.835)"/><path d="M208.159,260.288h3.29a2.258,2.258,0,0,0,4.388-.753V258.03a2.258,2.258,0,0,0-2.258-2.258h-5.419a2.258,2.258,0,0,0,0,4.516Z" transform="translate(-149.6 -185.834)"/><path d="M272.022,261.794a2.259,2.259,0,0,0,2.129-1.505h3.29a2.258,2.258,0,0,0,0-4.516h-5.419a2.258,2.258,0,0,0-2.258,2.258v1.505A2.258,2.258,0,0,0,272.022,261.794Z" transform="translate(-196 -185.835)"/><path d="M173.072,207.708l7.157,6.631a14.293,14.293,0,0,0,19.425,0l7.155-6.63a24.916,24.916,0,0,0,7.97-18.227V164.065a6.752,6.752,0,0,0-12-4.281l-4.987,6.137a24.738,24.738,0,0,0-15.7,0l-4.987-6.137a6.768,6.768,0,0,0-12.024,4.28l.022,25.42c0,.009,0,.017,0,.026A24.918,24.918,0,0,0,173.072,207.708Zm33.21-45.076a2.262,2.262,0,0,1,2.507-.706,2.222,2.222,0,0,1,1.474,2.135v11.165a25.012,25.012,0,0,0-8.195-7.41Zm3.981,26.849a20.388,20.388,0,0,1-6.523,14.914l-7.155,6.63a9.778,9.778,0,0,1-13.288,0l-7.157-6.631a20.321,20.321,0,1,1,34.123-14.913Zm-39.171-27.555a2.261,2.261,0,0,1,2.507.706l4.213,5.185a25.012,25.012,0,0,0-8.207,7.427l-.01-11.186A2.261,2.261,0,0,1,171.093,161.926Z" transform="translate(-119.941 -114.275)"/><path d="M142,99.1A42.88,42.88,0,0,0,108.5,168.766a2.258,2.258,0,1,0,3.526-2.822A37.942,37.942,0,0,1,103.613,142,38.387,38.387,0,1,1,142,180.387a37.938,37.938,0,0,1-23.944-8.408,2.258,2.258,0,0,0-2.822,3.526A42.9,42.9,0,1,0,142,99.1Z" transform="translate(-72 -72)"/></svg>