<svg xmlns="http://www.w3.org/2000/svg" width="124.946" height="140" viewBox="0 0 124.946 140"><defs><style>.a{fill:#a5c6e3;}.b{fill:#d2e3f1;}.c{fill:#134a79;}.d{fill:#0e3759;}</style></defs><g transform="translate(-27.527)"><path class="a" d="M316.215,68.489A60.28,60.28,0,0,0,256.659,8.28L256,143.758a30.046,30.046,0,0,0,22.448-10.065l14.105-15.785a22.58,22.58,0,0,0,18.862-25.881A59.846,59.846,0,0,0,316.215,68.489Z" transform="translate(-166 -6.016)"/><path class="b" d="M147.184,68.473a69.059,69.059,0,0,1-4.077,23.538,27.082,27.082,0,0,1,.238,3.559c0,11.3-7.06,20.666-16.276,22.322L115.08,133.677c-4.688,6.172-11.5,10.065-19.079,10.065a30.046,30.046,0,0,1-22.448-10.065L59.447,117.892A22.58,22.58,0,0,1,40.585,92.011,60.2,60.2,0,0,1,96,8.258c.22,0,.44,0,.659.006C124.582,8.68,147.184,35.529,147.184,68.473Z" transform="translate(-6.001 -6)"/><g transform="translate(45.632 67.566)"><path class="a" d="M94.171,247.1c-1.871,13.419,2.4,25.145,11.3,28.382s19.7-3,26.9-14.48Z" transform="translate(-93.738 -247.097)"/><path class="a" d="M315.193,247.1c1.871,13.419-2.4,25.145-11.3,28.382s-19.7-3-26.9-14.48Z" transform="translate(-226.889 -247.097)"/></g><path class="c" d="M119.126,221.53c-8.892-3.237-18.411-.559-23.808,5.993-.077,8.489,5.493,16.658,14.386,19.894s18.411.559,23.808-5.993C133.589,232.936,128.019,224.767,119.126,221.53Z" transform="translate(-49.254 -159.958)"/><path class="d" d="M367.8,229.1l-10.029,25.366q.862-.24,1.722-.551c8.891-3.237,14.461-11.4,14.385-19.9A19.81,19.81,0,0,0,367.8,229.1Z" transform="translate(-239.944 -166.456)"/><path class="c" d="M291.38,221.531a21.937,21.937,0,0,1,17.73,1.072c-.126,10.727-3.956,20.943-10.029,25.366a21.229,21.229,0,0,1-22.087-6.542C276.92,232.936,282.49,224.768,291.38,221.531Z" transform="translate(-181.254 -159.958)"/><path d="M129.771,235.444c.088-9.693-6.291-18.549-15.872-22.037a24.779,24.779,0,0,0-8.5-1.51,22.922,22.922,0,0,0-17.828,8.188,2.261,2.261,0,0,0-.515,1.415c-.087,9.693,6.291,18.549,15.872,22.037a24.778,24.778,0,0,0,8.5,1.51,24.363,24.363,0,0,0,4.752-.466,21.7,21.7,0,0,1-6.737,3.354,2.258,2.258,0,1,0,1.215,4.35c6.9-1.927,13.741-7.642,18.768-15.669A2.28,2.28,0,0,0,129.771,235.444Zm-18.343,5.088a20.273,20.273,0,0,1-6.951-1.237,19.13,19.13,0,0,1-12.889-16.946,18.5,18.5,0,0,1,13.815-5.934,20.27,20.27,0,0,1,6.951,1.237A19.13,19.13,0,0,1,125.243,234.6,18.5,18.5,0,0,1,111.428,240.532Z" transform="translate(-43.254 -153.957)"/><path d="M152.473,62.473a62.473,62.473,0,1,0-124.946,0,61.894,61.894,0,0,0,4.731,23.836A24.845,24.845,0,0,0,52.29,113.984l13.579,15.2a32.319,32.319,0,0,0,48.261,0l13.579-15.2a24.843,24.843,0,0,0,20.032-27.675A61.9,61.9,0,0,0,152.473,62.473Zm-26.261,47.186a2.259,2.259,0,0,0-1.343.728l-14.1,15.785a27.8,27.8,0,0,1-41.526,0L55.132,110.386a2.259,2.259,0,0,0-1.343-.728A20.329,20.329,0,0,1,36.813,86.365a2.255,2.255,0,0,0-.153-1.239,57.418,57.418,0,0,1-4.617-22.653,57.957,57.957,0,0,1,115.914,0,57.42,57.42,0,0,1-4.616,22.653,2.259,2.259,0,0,0-.154,1.239,20.33,20.33,0,0,1-16.976,23.294Z"/><circle cx="2.258" cy="2.258" r="2.258" transform="translate(69.677 16.559)"/><circle cx="2.258" cy="2.258" r="2.258" transform="translate(78.71 25.591)"/><circle cx="2.258" cy="2.258" r="2.258" transform="translate(51.613 45.161)"/><circle cx="2.258" cy="2.258" r="2.258" transform="translate(123.871 36.129)"/><path d="M293.105,211.9a24.773,24.773,0,0,0-8.5,1.51c-9.581,3.487-15.959,12.343-15.872,22.037a2.26,2.26,0,0,0,.347,1.176c5.027,8.027,11.865,13.737,18.765,15.665a2.258,2.258,0,0,0,1.215-4.35,21.679,21.679,0,0,1-6.737-3.354,24.375,24.375,0,0,0,4.753.466,24.777,24.777,0,0,0,8.5-1.51c9.581-3.487,15.959-12.343,15.872-22.037a2.261,2.261,0,0,0-.515-1.415A22.922,22.922,0,0,0,293.105,211.9Zm.926,27.4a20.26,20.26,0,0,1-6.951,1.237,18.5,18.5,0,0,1-13.815-5.934,19.13,19.13,0,0,1,12.889-16.946,20.263,20.263,0,0,1,6.951-1.237,18.5,18.5,0,0,1,13.815,5.934A19.13,19.13,0,0,1,294.031,239.3Z" transform="translate(-175.254 -153.958)"/><path d="M231.226,367.862v9.032a2.258,2.258,0,1,0,4.516,0v-9.032a2.258,2.258,0,0,0-4.516,0Z" transform="translate(-148 -265.634)"/><path d="M266.516,379.153a2.258,2.258,0,0,0,2.258-2.258v-9.032a2.258,2.258,0,0,0-4.516,0V376.9A2.258,2.258,0,0,0,266.516,379.153Z" transform="translate(-172 -265.635)"/><path d="M237.527,434.68h-2.389a2.257,2.257,0,0,0-3.723-2.349L230,433.745l-1.414-1.414a2.257,2.257,0,0,0-3.723,2.349h-2.39a2.258,2.258,0,1,0,0,4.516h15.054a2.258,2.258,0,1,0,0-4.516Z" transform="translate(-140 -313.635)"/></g></svg>