<svg xmlns="http://www.w3.org/2000/svg" width="142.887" height="140" viewBox="0 0 142.887 140"><defs><style>.a{fill:#fcd999;}.b{fill:#feeccc;}.c{fill:#fbc566;}.d{fill:#f9b233;}.e{fill:#fa9647;}.f{fill:#fd5f6e;}.g{fill:#fff;}</style></defs><g transform="translate(0 -5.172)"><path class="a" d="M197.435,124.216v104.47a52.238,52.238,0,0,0,0-104.47Z" transform="translate(-142.336 -85.822)"/><path class="b" d="M61.053,124.208c-.184,0-.372,0-.556,0a52.239,52.239,0,0,0-33.8,92.068L45.843,226.6A52.263,52.263,0,0,0,60.5,228.681c.184,0,.372,0,.556,0,23.5-.363,42.464-23.609,42.464-52.235S84.557,124.571,61.053,124.208Z" transform="translate(-5.954 -85.814)"/><path class="c" d="M118.939,410.5l3.863,21.581c.931.332,1.878.636,2.833.916a12.294,12.294,0,0,0-6.7-22.5Z" transform="translate(-85.746 -292.208)"/><g transform="translate(17.669 76.801)"><path class="a" d="M92.761,422.776a19.182,19.182,0,0,1-2.123,9.292,52.182,52.182,0,0,1-16.314-9.409,12.293,12.293,0,0,1,12.291-12.175c.052,0,.1,0,.16,0C90.1,410.657,92.761,416.1,92.761,422.776Z" transform="translate(-71.251 -369.001)"/><circle class="a" cx="4.609" cy="4.609" r="4.609"/></g><path class="c" d="M227.7,365.341v18.437a9.219,9.219,0,0,0,0-18.437Z" transform="translate(-164.157 -259.655)"/><path class="a" d="M203.889,365.341c1.7,0,3.073,4.127,3.073,9.218s-1.377,9.218-3.073,9.218a9.218,9.218,0,1,1,0-18.437Z" transform="translate(-140.343 -259.655)"/><path class="d" d="M296.805,77.224a6.146,6.146,0,1,1-8.691-8.691l4.346-4.346a6.146,6.146,0,0,0-8.691-8.691l-16.3,16.3-10.6,24.162L271.818,110.9Z" transform="translate(-185.183 -34.982)"/><path class="e" d="M351.356,67.175a6.146,6.146,0,0,0-8.691,0l-47.8,47.8,26.074-8.691,30.42-30.419A6.145,6.145,0,0,0,351.356,67.175Z" transform="translate(-212.573 -43.402)"/><path class="f" d="M267.342,189.515v-8.691L232.577,206.9a18.437,18.437,0,0,0,26.074,0l17.383-17.383Z" transform="translate(-167.671 -126.632)"/><path class="e" d="M244.7,135.921v-8.692h-8.691v-8.691l-17.383,17.383a18.437,18.437,0,0,0,0,26.074c2.4,2.4,10.182-1.491,17.383-8.691l17.383-17.383Z" transform="translate(-153.72 -81.728)"/><path class="b" d="M271.353,194.507l-3.073,9.218,3.073,9.218a9.218,9.218,0,1,0,0-18.437Z" transform="translate(-193.41 -136.496)"/><path class="g" d="M246.259,203.725a9.218,9.218,0,0,0,9.218,9.218V194.506A9.219,9.219,0,0,0,246.259,203.725Z" transform="translate(-177.534 -136.496)"/><circle cx="2.305" cy="2.305" r="2.305" transform="translate(111.489 11.69)"/><circle cx="2.305" cy="2.305" r="2.305" transform="translate(118.009 5.172)"/><path d="M241.377,189.625a11.523,11.523,0,1,0,8.148-3.375A11.447,11.447,0,0,0,241.377,189.625Zm15.062,8.148a6.914,6.914,0,1,1-2.025-4.889A6.87,6.87,0,0,1,256.439,197.773Z" transform="translate(-171.582 -130.544)"/><path d="M184.039,189.247a25.4,25.4,0,0,1-.089-35.762,2.3,2.3,0,1,0-3.275-3.243,29.96,29.96,0,0,0,42.369,42.369,2.3,2.3,0,0,0-3.243-3.275,25.382,25.382,0,0,1-35.762-.09Z" transform="translate(-124.022 -104.092)"/><path d="M142.887,57.146a8.45,8.45,0,0,0-14.425-5.975,2.3,2.3,0,0,0,3.259,3.259,3.841,3.841,0,0,1,5.432,5.432l-47.8,47.8A16.132,16.132,0,1,1,66.536,84.849L100.215,51.17a3.841,3.841,0,1,1,5.432,5.432L101.3,60.948a8.45,8.45,0,1,0,11.95,11.95L125.2,60.948a2.3,2.3,0,1,0-3.259-3.259L109.992,69.639a3.841,3.841,0,0,1-5.432-5.432l4.345-4.345a8.45,8.45,0,1,0-11.95-11.951l-21.4,21.4a54.5,54.5,0,1,0,29.333,29.333l35.523-35.523A8.393,8.393,0,0,0,142.887,57.146ZM39.446,167.255a49.881,49.881,0,0,1-16.329-8.826,9.986,9.986,0,1,1,16.329,8.826Zm65.031-47.6a49.956,49.956,0,0,1-59.938,48.926,14.592,14.592,0,1,0-25.32-13.668A49.933,49.933,0,0,1,72,72.864L63.277,81.59A20.741,20.741,0,1,0,92.61,110.922l8.726-8.726A49.592,49.592,0,0,1,104.477,119.657Z" transform="translate(0 -29.027)"/><path d="M61.969,253.581a6.914,6.914,0,1,0,6.914,6.914A6.921,6.921,0,0,0,61.969,253.581Zm0,9.219a2.3,2.3,0,1,1,2.3-2.3A2.307,2.307,0,0,1,61.969,262.8Z" transform="translate(-39.691 -179.084)"/><circle cx="2.305" cy="2.305" r="2.305" transform="translate(29.192 65.278)"/><circle cx="2.305" cy="2.305" r="2.305" transform="translate(79.679 112.599)"/><path d="M197.931,357.083a11.525,11.525,0,0,0-11.131,14.5,2.3,2.3,0,1,0,4.453-1.191,6.909,6.909,0,1,1,4.887,4.887,2.3,2.3,0,1,0-1.19,4.453,11.523,11.523,0,1,0,2.982-22.655Z" transform="translate(-134.386 -253.701)"/></g></svg>