<svg xmlns="http://www.w3.org/2000/svg" width="160" height="160.007" viewBox="0 0 160 160.007"><defs><style>.a{fill:#b440a1;}.b{fill:#ff2796;}.c{fill:#fcd999;}.d{fill:#fff;}</style></defs><g transform="translate(-0.011)"><g transform="translate(2.587 2.577)"><path class="a" d="M272.379,62.066c4.625,24.969-9.226,51.783-34.175,57.84,0,0,29.356-36,22.636-63.935S208.249,8.641,201.718,8.328a68.954,68.954,0,0,1,26.225,3.747c13.889,5.09,25.458,12.96,34.254,25.458C267.751,45.4,270.528,52.809,272.379,62.066Z" transform="translate(-141.259 -8.246)"/><path class="a" d="M62.076,82.241c24.969-4.625,51.783,9.226,57.84,34.175,0,0-36-29.356-63.935-22.636S8.651,146.371,8.338,152.9a68.954,68.954,0,0,1,3.747-26.225c5.09-13.889,12.96-25.458,25.458-34.254C45.414,86.869,52.819,84.092,62.076,82.241Z" transform="translate(-8.256 -58.509)"/><path class="a" d="M82.251,204.3c-4.625-24.969,9.226-51.783,34.175-57.84,0,0-29.356,36-22.636,63.935s52.592,47.329,59.123,47.643a68.954,68.954,0,0,1-26.225-3.747c-13.889-5.09-25.458-12.96-34.254-25.458C86.879,220.96,84.1,213.555,82.251,204.3Z" transform="translate(-58.519 -103.265)"/><path class="a" d="M204.308,272.369c-24.969,4.625-51.783-9.226-57.84-34.175,0,0,36,29.356,63.935,22.636s47.329-52.592,47.643-59.123a68.954,68.954,0,0,1-3.747,26.225c-5.09,13.889-12.96,25.458-25.458,34.254C220.97,267.741,213.565,270.518,204.308,272.369Z" transform="translate(-103.275 -141.248)"/></g><path class="b" d="M109.469,132.665c9.257-1.851,16.662-4.628,24.532-10.183,12.5-8.8,20.368-20.365,25.458-34.254a67.937,67.937,0,0,0,3.747-19.343,79.851,79.851,0,0,0-18.558-46.91c14.35,23.61,16.662,54.158-.465,77.764-1.387,1.851-2.777,3.242-4.164,5.093-9.247,9.247-21.27,16.187-34.681,15.279,20.075-9.149,31.466-35.573,27.335-57.865-1.851-9.257-4.628-16.662-10.183-24.532-8.8-12.5-20.365-20.368-34.253-25.458A67.937,67.937,0,0,0,68.9,8.509a79.851,79.851,0,0,0-46.91,18.558c23.61-14.35,54.158-16.662,77.764.465,1.851,1.387,3.242,2.777,5.093,4.164,9.247,9.247,16.187,21.27,15.279,34.681-9.139-20.09-35.565-31.468-57.865-27.336C53,40.892,45.594,43.669,37.724,49.224c-12.5,8.8-20.368,20.365-25.458,34.254A67.937,67.937,0,0,0,8.519,102.82a79.851,79.851,0,0,0,18.558,46.91c-14.35-23.61-16.662-54.158.465-77.764,1.387-1.851,2.777-3.242,4.164-5.093,9.247-9.247,21.27-16.187,34.681-15.279C46.316,60.746,34.92,87.17,39.051,109.459c1.851,9.257,4.628,16.662,10.183,24.532,8.8,12.5,20.365,20.368,34.254,25.458A67.937,67.937,0,0,0,102.83,163.2a79.851,79.851,0,0,0,46.91-18.558c-23.61,14.35-54.158,16.662-77.764-.465-1.851-1.387-3.242-2.777-5.093-4.164C57.637,130.763,50.7,118.74,51.6,105.329,60.741,125.423,87.167,136.8,109.469,132.665Z" transform="translate(-5.849 -5.85)"/><path class="c" d="M257.111,224.067v20.647c11.4,0,20.647-4.621,20.647-10.324S268.515,224.067,257.111,224.067Z" transform="translate(-176.753 -154.043)"/><g transform="translate(59.711 46.797)"><path class="d" d="M211.69,224.067a10.324,10.324,0,0,1,0,20.647c-11.4,0-20.647-4.621-20.647-10.324S200.286,224.067,211.69,224.067Z" transform="translate(-191.043 -200.84)"/><circle class="d" cx="2.581" cy="2.581" r="2.581" transform="translate(18.068)"/><circle class="d" cx="2.581" cy="2.581" r="2.581" transform="translate(28.391 10.324)"/><circle class="d" cx="2.581" cy="2.581" r="2.581" transform="translate(49.038 24.089)"/><circle class="d" cx="2.581" cy="2.581" r="2.581" transform="translate(7.744 58.501)"/></g><path d="M182.784,228.713c0,3.786,2.654,7.2,7.474,9.608a39.293,39.293,0,0,0,31.508,0c4.82-2.41,7.474-5.822,7.474-9.608s-2.654-7.2-7.474-9.608a39.294,39.294,0,0,0-31.508,0C185.438,221.514,182.784,224.926,182.784,228.713Zm41.294,0c0,3.655-7.726,7.743-18.066,7.743s-18.066-4.088-18.066-7.743,7.726-7.743,18.066-7.743S224.078,225.058,224.078,228.713Z" transform="translate(-125.654 -148.365)"/><circle cx="2.581" cy="2.581" r="2.581" transform="translate(3.576 8.657)"/><circle cx="2.581" cy="2.581" r="2.581" transform="translate(13.899 31.37)"/><circle cx="2.581" cy="2.581" r="2.581" transform="translate(27.881 142.29)"/><circle cx="2.581" cy="2.581" r="2.581" transform="translate(151.633 125.886)"/><circle cx="2.581" cy="2.581" r="2.581" transform="translate(151.633 115.562)"/><circle cx="2.581" cy="2.581" r="2.581" transform="translate(77.778 98.415)"/><circle cx="2.581" cy="2.581" r="2.581" transform="translate(77.778 57.12)"/><circle cx="2.581" cy="2.581" r="2.581" transform="translate(46.808 77.768)"/><circle cx="2.581" cy="2.581" r="2.581" transform="translate(126.237 3.565)"/><path d="M187.454,47.586a83.449,83.449,0,0,0-16.879-33.117,2.581,2.581,0,0,0-4.185,3c14.951,24.6,14.819,53.991-.335,74.892-.639.851-1.283,1.6-1.964,2.4s-1.369,1.6-2.074,2.527a56.486,56.486,0,0,1-13.781,10.258,49.827,49.827,0,0,0,11.495-13.821,56.733,56.733,0,0,0,6.312-37.792l-.007-.036c-2.052-10.259-5.224-17.89-10.6-25.512C146.888,18.236,135.283,9.6,119.925,3.971A73.575,73.575,0,0,0,80.05,1.741a83.128,83.128,0,0,0-35.773,17.5,2.581,2.581,0,0,0,3,4.184c24.6-14.951,53.99-14.819,74.892.335.852.64,1.6,1.284,2.4,1.966s1.6,1.368,2.525,2.074a56.421,56.421,0,0,1,10.291,13.848,49.285,49.285,0,0,0-11.575-10.188,56.052,56.052,0,0,0-34.595-8.415,2.581,2.581,0,1,0,.429,5.144c23.463-1.956,44.918,12.223,49.915,32.98a2.581,2.581,0,0,0,5.084-.427c1.1-16-8.106-28.8-16.025-36.719a2.586,2.586,0,0,0-.277-.24c-.858-.644-1.614-1.292-2.415-1.978-.828-.71-1.684-1.443-2.677-2.189l-.033-.024A66.321,66.321,0,0,0,84.771,7.065q-3.04.052-6.08.354A69.263,69.263,0,0,1,118.18,8.828c14.307,5.246,25.112,13.266,33.033,24.524,5,7.087,7.83,13.906,9.757,23.531,4.594,24.856-9.9,49.466-32.323,54.864a2.581,2.581,0,0,0,.427,5.084q1.326.091,2.62.091c14.777,0,26.616-8.633,34.1-16.115a2.583,2.583,0,0,0,.239-.277c.644-.858,1.292-1.615,1.978-2.415.71-.828,1.443-1.684,2.188-2.676.008-.011.017-.022.024-.033a66.325,66.325,0,0,0,12.526-40.442q-.054-3.168-.38-6.338a70.006,70.006,0,0,1,.116,34.846,2.581,2.581,0,0,0,4.992,1.315A75,75,0,0,0,187.454,47.586Z" transform="translate(-29.797 0)"/><path d="M142.551,191.267c-24.6,14.951-53.99,14.819-74.89-.334-.853-.64-1.6-1.284-2.4-1.966s-1.6-1.368-2.525-2.074a56.472,56.472,0,0,1-10.257-13.78A49.822,49.822,0,0,0,66.3,184.607a56.727,56.727,0,0,0,37.792,6.312l.036-.007c10.261-2.052,17.891-5.224,25.512-10.6,10.9-7.668,18.912-17.717,24.5-30.723a2.581,2.581,0,1,0-4.742-2.039c-5.2,12.1-12.64,21.438-22.737,28.543-7.087,5-13.905,7.83-23.532,9.757-24.855,4.595-49.466-9.9-54.863-32.323a2.581,2.581,0,0,0-5.084.427c-1.1,16,8.105,28.8,16.025,36.719a2.586,2.586,0,0,0,.277.24c.858.644,1.614,1.292,2.414,1.978.828.71,1.684,1.443,2.678,2.188l.033.024a66.364,66.364,0,0,0,40.441,12.526q3.04-.052,6.08-.354a69.264,69.264,0,0,1-39.489-1.409c-14.307-5.246-25.111-13.267-33.033-24.524-5-7.088-7.83-13.906-9.757-23.532-4.594-24.856,9.9-49.466,32.323-54.863a2.581,2.581,0,0,0-.427-5.084c-15.993-1.1-28.8,8.105-36.719,16.025a2.61,2.61,0,0,0-.239.276c-.644.858-1.292,1.614-1.978,2.415-.71.828-1.443,1.684-2.188,2.677-.008.011-.017.022-.024.033A66.325,66.325,0,0,0,7.077,159.728q.052,3.039.354,6.08a69.246,69.246,0,0,1,1.41-39.489c5.246-14.307,13.266-25.111,24.523-33.033A55.251,55.251,0,0,1,52.12,84.621a2.581,2.581,0,0,0-1.3-5A60.19,60.19,0,0,0,30.39,89.066C18.248,97.611,9.614,109.215,3.983,124.573a73.567,73.567,0,0,0-2.231,39.875,83.129,83.129,0,0,0,17.5,35.773,2.581,2.581,0,0,0,4.185-3c-14.95-24.6-14.819-53.989.334-74.891.64-.852,1.284-1.6,1.966-2.4s1.368-1.6,2.074-2.526a56.461,56.461,0,0,1,13.781-10.258,49.836,49.836,0,0,0-11.495,13.821,56.733,56.733,0,0,0-6.312,37.792l.007.036c2.052,10.259,5.223,17.89,10.6,25.512,8.545,12.142,20.149,20.776,35.507,26.408a71.182,71.182,0,0,0,23.642,3.971,77.381,77.381,0,0,0,16.233-1.741,83.128,83.128,0,0,0,35.773-17.5,2.581,2.581,0,0,0-3-4.185Z" transform="translate(0 -54.684)"/></g></svg>