<svg xmlns="http://www.w3.org/2000/svg" width="160" height="160" viewBox="0 0 160 160"><defs><style>.a{fill:#fd5f6e;}.b{fill:#fb7a5b;}.c{fill:#fcd999;}.d{fill:#feeccc;}.e{fill:#ff2796;}.f{fill:#fbc566;}.g{fill:#f9b233;}.h{fill:#fff;}</style></defs><path class="a" d="M325.714,168.676c3.733-3.733,3.541-10.395,6.063-14.761,2.612-4.514,8.447-7.7,9.762-12.628,1.332-5-2.154-10.677-2.154-15.814s3.486-10.818,2.154-15.814c-1.168-4.378-5.9-7.383-8.778-11.165L309.493,75.224c-3.783-2.873-6.788-7.612-11.167-8.78a10.456,10.456,0,0,0-3.764-.234V184.734a10.456,10.456,0,0,0,3.764-.234c4.927-1.314,8.113-7.15,12.628-9.762C315.319,172.216,321.981,172.409,325.714,168.676Z" transform="translate(-202.511 -45.472)"/><path class="b" d="M148.965,174.738c3.606-2.522,9.108-2.329,12.191-6.063s2.925-10.395,5.01-14.761c2.158-4.514,6.975-7.7,8.062-12.628,1.1-5-1.779-10.677-1.779-15.814s2.88-10.818,1.779-15.814c-.608-2.754-2.381-4.965-4.2-7.167L150.991,77.307a11.347,11.347,0,0,1-2.026-1.1c-3.73-2.612-6.362-8.447-10.429-9.762a6.2,6.2,0,0,0-1.015-.234c-3.861.385-7.928,2.274-11.716,2.381-.11,0-.224.007-.334.007-5.137,0-10.818-3.486-15.814-2.154-4.927,1.314-8.113,7.15-12.628,9.762C92.662,78.728,86,78.535,82.268,82.269S78.727,92.663,76.2,97.03c-2.612,4.514-8.447,7.7-9.762,12.628-1.332,5,2.154,10.677,2.154,15.814s-3.486,10.818-2.154,15.814c1.168,4.379,5.906,7.384,8.779,11.167l23.27,23.269c3.782,2.874,6.786,7.609,11.164,8.777,5,1.332,10.677-2.154,15.814-2.154.11,0,.224,0,.334.007,3.788.107,7.856,2,11.716,2.381a6.164,6.164,0,0,0,1.015-.234C142.6,183.185,145.236,177.35,148.965,174.738Z" transform="translate(-45.471 -45.472)"/><path class="c" d="M256,167.914v55.054a27.527,27.527,0,1,0,0-55.054Z" transform="translate(-176 -115.441)"/><path class="d" d="M195.441,167.914c9.5,0,17.2,12.325,17.2,27.527s-7.7,27.527-17.2,27.527a27.527,27.527,0,1,1,0-55.054Z" transform="translate(-115.441 -115.441)"/><g transform="translate(8.633 8.629)"><path class="e" d="M401.71,42.211a20.59,20.59,0,0,0-6.049-14.6h0L355.327,67.947,374.538,72l18.389-12.9A20.611,20.611,0,0,0,401.71,42.211Z" transform="translate(-252.92 -27.613)"/><path class="e" d="M70.788,346.1,27.626,389.32a20.635,20.635,0,0,0,31.487-2.737l12.9-18.386Z" transform="translate(-27.626 -246.576)"/></g><path class="a" d="M184,190.967l39.684-27.847-1.81-8.791-47.607,26.906L144.189,233.09a26.73,26.73,0,0,1,6.5,2.278,14.1,14.1,0,0,1,1.464.984Z" transform="translate(-99.13 -106.101)"/><g transform="translate(2.583 2.58)"><path class="f" d="M35.433,342.34l-18.386,12.9a20.635,20.635,0,0,0-2.734,31.488l0,0c1.869,1.867,5.162,2.309,9.433.884,5.236-1.747,10.735-5.893,14.863-10.81l12.129-14.458Z" transform="translate(-8.264 -237.938)"/><path class="f" d="M387.621,23.739c1.426-4.273.983-7.567-.886-9.436a20.635,20.635,0,0,0-31.488,2.734l-12.9,18.388,20.007,15.307L376.812,38.6C381.728,34.474,385.874,28.975,387.621,23.739Z" transform="translate(-237.944 -8.255)"/></g><path class="g" d="M355.349,102.252h0c-3.733-3.733-10.395-3.541-14.761-6.063a14.115,14.115,0,0,1-1.46-.982l-1.462,2.083,14.79,18.826,5.447-.095,1.232-5.507C358.327,107.453,357.475,104.378,355.349,102.252Z" transform="translate(-232.145 -65.454)"/><path class="c" d="M183.523,111.626l-.077.077a13.249,13.249,0,0,0-2.308-4.869c-2.548-3.086-6.748-3.49-10.165-4.962l-13.47,19.2-16.913,24.1L95.2,177.019a14.1,14.1,0,0,1,.983,1.461c2.522,4.367,2.329,11.028,6.063,14.761h0c2.126,2.125,5.2,2.978,8.261,3.783l37.376-44.555L185.763,120.7C184.748,118.094,184.322,114.535,183.523,111.626Z" transform="translate(-65.453 -70.037)"/><path class="b" d="M391.671,144.188l-6.678,5.6c.12.308.247.608.385.9a27.5,27.5,0,0,0,3.858,5.461l5.7-4a14.1,14.1,0,0,1-.984-1.463A26.731,26.731,0,0,1,391.671,144.188Z" transform="translate(-264.683 -99.129)"/><circle class="h" cx="6.882" cy="6.882" r="6.882" transform="translate(73.118 73.118)"/><path d="M376.575,103.111a16.71,16.71,0,0,0-7.383-3.895,2.581,2.581,0,0,0-1.449,4.954,12.141,12.141,0,0,1,5.182,2.59,12.136,12.136,0,0,1,2.59,5.181,2.58,2.58,0,0,0,4.953-1.448A16.7,16.7,0,0,0,376.575,103.111Z" transform="translate(-251.547 -68.139)"/><path d="M111.944,375.521a12.147,12.147,0,0,1-5.182-2.59,12.14,12.14,0,0,1-2.59-5.181,2.581,2.581,0,1,0-4.954,1.449A14.123,14.123,0,0,0,110.5,380.475a2.581,2.581,0,1,0,1.449-4.953Z" transform="translate(-68.141 -251.552)"/><path d="M136.774,0a23.268,23.268,0,0,0-19.005,9.882L106.511,25.926c-.483-.464-.97-.951-1.468-1.45-2.478-2.485-5.039-5.055-8.562-6-3.577-.955-7.1,0-10.508.932A24.173,24.173,0,0,1,80,20.546a24.183,24.183,0,0,1-5.972-1.134c-3.408-.928-6.933-1.887-10.509-.932-3.522.94-6.084,3.51-8.562,6A24.705,24.705,0,0,1,50.266,28.5a23.6,23.6,0,0,1-5.6,1.948c-3.288.864-7.014,1.844-9.7,4.525s-3.661,6.408-4.525,9.7a23.6,23.6,0,0,1-1.948,5.6,24.711,24.711,0,0,1-4.023,4.691c-2.485,2.477-5.055,5.039-6,8.562-.955,3.576,0,7.1.932,10.509A24.169,24.169,0,0,1,20.546,80a24.17,24.17,0,0,1-1.134,5.972c-.927,3.408-1.887,6.932-.932,10.508.94,3.522,3.51,6.084,6,8.562.5.5.986.984,1.45,1.468L9.879,117.771a23.223,23.223,0,1,0,32.352,32.348l11.258-16.044c.483.464.97.951,1.468,1.45,2.478,2.485,5.039,5.055,8.562,6,3.576.954,7.1,0,10.508-.932A24.173,24.173,0,0,1,80,139.454a24.172,24.172,0,0,1,5.973,1.134,28.428,28.428,0,0,0,7.38,1.327,12.053,12.053,0,0,0,3.129-.4c3.523-.94,6.084-3.51,8.562-6a24.713,24.713,0,0,1,4.691-4.023,23.586,23.586,0,0,1,5.6-1.947c3.288-.864,7.014-1.844,9.7-4.525s3.661-6.408,4.525-9.7a23.582,23.582,0,0,1,1.947-5.6,24.7,24.7,0,0,1,4.023-4.691c2.485-2.478,5.055-5.039,6-8.562.955-3.576,0-7.1-.932-10.509A24.167,24.167,0,0,1,139.454,80a24.165,24.165,0,0,1,1.134-5.972c.928-3.408,1.887-6.932.932-10.509-.94-3.522-3.51-6.084-6-8.562-.5-.5-.986-.984-1.45-1.468l16.047-11.26A23.223,23.223,0,0,0,136.774,0ZM28.119,101.388c-2.093-2.087-4.071-4.058-4.653-6.238-.6-2.231.143-4.947.926-7.822A28.214,28.214,0,0,0,25.707,80a28.214,28.214,0,0,0-1.315-7.328c-.783-2.875-1.522-5.59-.926-7.822.582-2.179,2.559-4.151,4.653-6.238a28.78,28.78,0,0,0,4.848-5.763,27.6,27.6,0,0,0,2.471-6.87c.766-2.913,1.489-5.664,3.183-7.358s4.445-2.418,7.358-3.183a27.6,27.6,0,0,0,6.87-2.471,28.792,28.792,0,0,0,5.763-4.847c2.087-2.093,4.058-4.071,6.237-4.653,2.232-.6,4.947.143,7.822.926A28.212,28.212,0,0,0,80,25.707a28.214,28.214,0,0,0,7.328-1.315c2.874-.783,5.59-1.521,7.822-.926,2.18.582,4.151,2.559,6.238,4.653.69.692,1.4,1.395,2.13,2.073L88.771,51.206A30.1,30.1,0,0,0,51.2,88.775L30.192,103.517C29.514,102.784,28.811,102.078,28.119,101.388ZM104.31,74.375a24.915,24.915,0,0,1-29.925,29.92L86.719,86.719ZM80,84.3A4.3,4.3,0,1,1,84.3,80,4.306,4.306,0,0,1,80,84.3Zm-6.719-11.02L55.689,85.625a24.915,24.915,0,0,1,29.925-29.92Zm-35.274,73.87a18.061,18.061,0,1,1-25.161-25.157l57.8-40.559a9.485,9.485,0,0,0,7.918,7.918L69.32,102.528a24.951,24.951,0,0,1-7.726-5.69,2.581,2.581,0,1,0-3.807,3.485,30.1,30.1,0,0,0,8.53,6.485Zm93.873-88.539c2.094,2.087,4.071,4.058,4.653,6.237.6,2.232-.143,4.947-.926,7.822A28.211,28.211,0,0,0,134.293,80a28.216,28.216,0,0,0,1.315,7.328c.783,2.874,1.522,5.59.926,7.822-.582,2.179-2.559,4.151-4.653,6.238a28.785,28.785,0,0,0-4.848,5.763,27.6,27.6,0,0,0-2.471,6.87c-.766,2.913-1.489,5.664-3.183,7.358s-4.446,2.418-7.359,3.183a27.6,27.6,0,0,0-6.87,2.471,28.781,28.781,0,0,0-5.763,4.848c-2.087,2.093-4.058,4.071-6.238,4.653-2.231.6-4.947-.143-7.822-.926A28.212,28.212,0,0,0,80,134.293a28.216,28.216,0,0,0-7.328,1.315c-2.875.783-5.591,1.521-7.822.926-2.179-.582-4.151-2.559-6.238-4.653-.69-.692-1.4-1.395-2.13-2.072l14.747-21.015A30.1,30.1,0,0,0,108.8,71.224l21.008-14.742C130.486,57.216,131.189,57.923,131.881,58.612Zm15.273-20.606-57.8,40.559a9.485,9.485,0,0,0-7.918-7.918l9.245-13.175a24.951,24.951,0,0,1,7.726,5.69,2.581,2.581,0,0,0,3.807-3.485,30.1,30.1,0,0,0-8.53-6.485l28.308-40.342a18.061,18.061,0,1,1,25.162,25.158Z"/></svg>