<svg xmlns="http://www.w3.org/2000/svg" width="160" height="154.839" viewBox="0 0 160 154.839"><defs><style>.a{fill:#b440a1;}.b{fill:#fa9647;}.c{fill:#fe4382;}.d{fill:#fcd999;}.e{fill:#feeccc;}.f{fill:#fbc566;}</style></defs><g transform="translate(0 -8.259)"><g transform="translate(55.739 37.506)"><path class="a" d="M242.2,143.142A20.645,20.645,0,0,0,221.549,122.5c-.684,0-1.357.034-2.025.1A41.268,41.268,0,0,0,183.7,101.85a41.978,41.978,0,0,0-5.336.341l53.164,85.681h10.666a10.263,10.263,0,0,0,10.254-10.322Z" transform="translate(-178.363 -101.85)"/><path class="a" d="M425.227,233.98H414.555l.281,34.41h10.391a17.205,17.205,0,0,0,0-34.41Z" transform="translate(-340.746 -192.688)"/></g><path class="b" d="M415.365,344.087c-.117.012.117,0,0,0Z" transform="translate(-285.54 -230.881)"/><path class="c" d="M152.431,161.094a17.206,17.206,0,0,0-17.2-17.205H114.581a20.644,20.644,0,0,0-20.645-20.645q-1.027,0-2.026.1a41.3,41.3,0,0,0-30.493-20.4,41.3,41.3,0,0,0-35.954,40.952,17.2,17.2,0,1,0,0,34.406H56.43A10.321,10.321,0,0,0,66.753,188.62h47.828A10.321,10.321,0,0,0,124.9,178.3h10.6A17.263,17.263,0,0,0,152.431,161.094Z" transform="translate(-5.677 -65.092)"/><circle class="d" cx="2.581" cy="2.581" r="2.581" transform="translate(65.376 52.13)"/><circle class="e" cx="2.581" cy="2.581" r="2.581" transform="translate(127.312 96.861)"/><circle class="f" cx="2.581" cy="2.581" r="2.581" transform="translate(39.57 95.141)"/><circle class="e" cx="2.581" cy="2.581" r="2.581" transform="translate(39.57 74.496)"/><g transform="translate(106.667 26.668)"><circle class="f" cx="2.581" cy="2.581" r="2.581" transform="translate(0 118.366)"/><circle class="f" cx="2.581" cy="2.581" r="2.581" transform="translate(6.882 0)"/></g><path class="e" d="M23.742,377.119l4.38,11.109,11.1,4.379-11.1,4.375-4.38,11.11-4.38-11.11-11.1-4.375,11.1-4.379Z" transform="translate(-5.677 -253.59)"/><g transform="translate(45.591 71.915)"><path class="d" d="M276.99,327.571l4.379,11.105,11.1,4.375-11.1,4.383L276.99,358.54l-4.383-11.106-11.1-4.383,11.1-4.375Z" transform="translate(-225.377 -291.443)"/><path class="d" d="M161.375,211.958l4.381,11.106,11.1,4.379-11.1,4.379-4.381,11.106L157,231.821l-11.1-4.379,11.1-4.379Z" transform="translate(-145.892 -211.958)"/></g><path class="e" d="M420.13,102.952l4.379,11.1,11.105,4.379-11.105,4.379-4.379,11.106-4.379-11.106-11.105-4.379,11.105-4.379Z" transform="translate(-278.194 -65.101)"/><path d="M140.215,134.882H122.008a23.259,23.259,0,0,0-23.083-20.645q-.307,0-.619.009a43.876,43.876,0,0,0-81.035,20.8,19.785,19.785,0,0,0,2.515,39.41H48.431a12.926,12.926,0,0,0,12.644,10.322H81.23l9.606,3.788L94.8,198.626a2.58,2.58,0,0,0,4.8,0l3.968-10.063,9.6-3.788h6.391a12.926,12.926,0,0,0,12.644-10.322h8a19.785,19.785,0,0,0,0-39.571Zm-39.578,49.291a2.584,2.584,0,0,0-1.454,1.454L97.2,190.646l-1.979-5.018a2.585,2.585,0,0,0-1.454-1.454L88.754,182.2l5.018-1.978a2.584,2.584,0,0,0,1.454-1.454l1.979-5.018,1.979,5.018a2.582,2.582,0,0,0,1.454,1.454l5.018,1.978Zm39.578-14.882H129.893a2.581,2.581,0,0,0-2.581,2.581,7.75,7.75,0,0,1-7.742,7.741h-6.391l-9.606-3.789L99.6,165.765a2.58,2.58,0,0,0-4.8,0l-3.968,10.061-9.605,3.789H61.075a7.75,7.75,0,0,1-7.742-7.741,2.581,2.581,0,0,0-2.581-2.581H19.785a14.624,14.624,0,0,1,0-29.248,2.58,2.58,0,0,0,2.581-2.58,38.715,38.715,0,0,1,72.3-19.259,2.586,2.586,0,0,0,2.488,1.282c.6-.059,1.2-.088,1.775-.088a18.085,18.085,0,0,1,18.064,18.065,2.58,2.58,0,0,0,2.581,2.58h20.645a14.624,14.624,0,0,1,0,29.248Z" transform="translate(0 -58.667)"/><circle cx="2.581" cy="2.581" r="2.581" transform="translate(29.247 84.818)"/><circle cx="2.581" cy="2.581" r="2.581" transform="translate(116.99 134.711)"/><circle cx="2.581" cy="2.581" r="2.581" transform="translate(58.495 21.162)"/><circle cx="2.581" cy="2.581" r="2.581" transform="translate(0 157.937)"/><circle cx="2.581" cy="2.581" r="2.581" transform="translate(123.871 36.99)"/><circle cx="2.581" cy="2.581" r="2.581" transform="translate(139.355 8.259)"/><path d="M34.5,384.525l-10.062-3.968L20.465,370.5a2.579,2.579,0,0,0-4.8,0L11.7,380.557,1.634,384.525a2.58,2.58,0,0,0,0,4.8L11.7,393.3l3.968,10.066a2.583,2.583,0,0,0,4.8,0L24.434,393.3,34.5,389.326a2.58,2.58,0,0,0,0-4.8Zm-13,4.383a2.571,2.571,0,0,0-1.454,1.453l-1.979,5.016-1.979-5.016a2.569,2.569,0,0,0-1.454-1.453l-5.017-1.981,5.018-1.98a2.564,2.564,0,0,0,1.454-1.449l1.979-5.02,1.979,5.02a2.562,2.562,0,0,0,1.454,1.449l5.018,1.98Z" transform="translate(0 -247.915)"/><path d="M172.126,219.362l-10.061-3.969-3.969-10.06a2.58,2.58,0,0,0-4.8,0l-3.969,10.06-10.063,3.969a2.581,2.581,0,0,0,0,4.8l10.063,3.969,3.969,10.063a2.581,2.581,0,0,0,4.8,0l3.969-10.063,10.061-3.969a2.579,2.579,0,0,0,0-4.8Zm-13,4.379a2.576,2.576,0,0,0-1.451,1.455l-1.98,5.018-1.979-5.018a2.582,2.582,0,0,0-1.455-1.455l-5.016-1.977,5.016-1.98a2.579,2.579,0,0,0,1.455-1.453l1.979-5.02,1.98,5.02a2.573,2.573,0,0,0,1.451,1.453l5.02,1.98Z" transform="translate(-94.621 -134.364)"/><path d="M398.015,115.158l10.063,3.969,3.972,10.063a2.577,2.577,0,0,0,4.8,0l3.972-10.063,10.059-3.969a2.581,2.581,0,0,0,0-4.8l-10.059-3.969-3.972-10.061a2.577,2.577,0,0,0-4.8,0l-3.972,10.061-10.063,3.969a2.583,2.583,0,0,0,0,4.8Zm13-4.378a2.583,2.583,0,0,0,1.453-1.454l1.977-5.018,1.98,5.018a2.586,2.586,0,0,0,1.453,1.454l5.02,1.979-5.02,1.978a2.583,2.583,0,0,0-1.453,1.454l-1.98,5.017-1.977-5.017a2.583,2.583,0,0,0-1.453-1.454L406,112.759Z" transform="translate(-272.513 -59.423)"/></g></svg>