<svg xmlns="http://www.w3.org/2000/svg" width="160" height="159.989" viewBox="0 0 160 159.989"><defs><style>.a{fill:#fb7a5b;}.b{fill:#fd5f6e;}.c{fill:#ff2796;}.d{fill:#fe4382;}.e{fill:#fa9647;}.f{fill:#f9b233;}.g{fill:#fcd999;}.h{fill:#fff;}</style></defs><g transform="translate(0 -0.018)"><path class="a" d="M62.231,180.942c-17.967,17.964-33.186,36.694-42.852,52.738-5.007,8.312-8.36,15.65-9.965,21.812-2.979,11.437.457,17.9,3.864,21.3,2.287,2.287,6.421,5.014,13.12,5.014,9.164,0,21.717-5.306,37.31-15.772,14.429-9.684,30.143-22.889,45.443-38.187Z" transform="translate(-5.691 -124.385)"/><path class="b" d="M276.8,13.289c-2.287-2.287-6.421-5.014-13.119-5.014-9.164,0-21.717,5.307-37.31,15.772-14.429,9.684-30.143,22.889-45.443,38.187l46.919,46.911C245.816,91.18,261.034,72.45,270.7,56.406c5.007-8.312,8.36-15.65,9.965-21.812C283.644,23.157,280.208,16.7,276.8,13.289Z" transform="translate(-124.389 -5.677)"/><path class="c" d="M210.584,82.593l-20.643,54.19L200.325,190a54.192,54.192,0,1,0,10.259-107.4Z" transform="translate(-130.584 -56.77)"/><path class="d" d="M136.783,82.593A54.193,54.193,0,0,0,126.524,190q5.076-3.877,10.259-8.218Z" transform="translate(-56.783 -56.77)"/><path class="e" d="M256,115.623v87.735a43.868,43.868,0,1,0,0-87.735Z" transform="translate(-176 -79.478)"/><path class="f" d="M193.037,159.491c0-24.227-15.019-43.868-33.546-43.868a43.868,43.868,0,1,0,0,87.735C178.017,203.358,193.037,183.718,193.037,159.491Z" transform="translate(-79.491 -79.478)"/><path class="g" d="M256,206.455V237.42a15.483,15.483,0,1,0,0-30.965Z" transform="translate(-176 -141.925)"/><path class="h" d="M227.1,221.938c0-8.551-2.311-15.483-5.161-15.483a15.483,15.483,0,1,0,0,30.966C224.788,237.42,227.1,230.488,227.1,221.938Z" transform="translate(-141.938 -141.925)"/><path d="M154.237,5.788C151.6,3.155,146.875.018,139.293.018c-9.686,0-22.722,5.454-38.747,16.209C97,18.609,93.315,21.245,89.587,24.069A56.706,56.706,0,0,0,24.057,89.6a211.043,211.043,0,0,0-12.578,18.369c-5.135,8.524-8.584,16.092-10.252,22.493-3.287,12.619.652,19.9,4.537,23.78,2.632,2.632,7.362,5.77,14.944,5.77,9.686,0,22.722-5.454,38.748-16.209q5.37-3.6,10.947-7.829a56.784,56.784,0,0,0,65.555-65.547,210.9,210.9,0,0,0,12.565-18.36c5.135-8.523,8.584-16.091,10.252-22.493C162.061,16.948,158.121,9.671,154.237,5.788ZM131.609,80.012A51.668,51.668,0,0,1,80,131.621q-1.913,0-3.83-.143a355.438,355.438,0,0,0,29.114-26.185,356.624,356.624,0,0,0,26.182-29.105Q131.608,78.1,131.609,80.012Zm22.17-51.745c-1.543,5.922-4.8,13.032-9.678,21.13a207.916,207.916,0,0,1-12.824,18.656,2.574,2.574,0,0,0-.217.284,341.887,341.887,0,0,1-29.425,33.306c-15.184,15.181-30.764,28.276-45.057,37.869-15.16,10.175-27.228,15.334-35.872,15.334-5.815,0-9.352-2.316-11.295-4.258-2.93-2.93-5.862-8.575-3.191-18.83,1.542-5.922,4.8-13.031,9.678-21.131,2.758-4.578,6.011-9.425,9.691-14.454a56.944,56.944,0,0,0,30.953,35.55,2.58,2.58,0,1,0,2.135-4.7,51.617,51.617,0,1,1,68.335-68.332,2.581,2.581,0,1,0,4.7-2.135A56.942,56.942,0,0,0,96.168,25.6c2.463-1.8,4.891-3.5,7.255-5.091C118.583,10.337,130.652,5.178,139.3,5.178c5.815,0,9.352,2.316,11.295,4.258C153.518,12.367,156.451,18.011,153.779,28.267Z" transform="translate(0)"/><path d="M229.314,212.085l-1.16-.377a17.844,17.844,0,0,0-.019-6.139l.835-.272a2.58,2.58,0,1,0-1.6-4.908l-.852.277a18.161,18.161,0,0,0-3.689-5.008l.552-.759a2.58,2.58,0,1,0-4.176-3.033l-.572.787a17.912,17.912,0,0,0-5.883-1.858v-1.025a2.58,2.58,0,0,0-5.161,0v1.07a17.935,17.935,0,0,0-5.79,1.943l-.665-.915a2.58,2.58,0,1,0-4.176,3.033l.692.953a18.159,18.159,0,0,0-3.535,4.91l-1.147-.372a2.58,2.58,0,1,0-1.6,4.908l1.16.377a17.866,17.866,0,0,0,0,6.034l-1.16.377a2.58,2.58,0,1,0,1.595,4.908l1.147-.372a18.15,18.15,0,0,0,3.535,4.91l-.693.953a2.581,2.581,0,0,0,4.176,3.034l.665-.915a17.92,17.92,0,0,0,5.79,1.943v1.07a2.58,2.58,0,1,0,5.161,0v-1.025a17.917,17.917,0,0,0,5.883-1.858l.572.787a2.581,2.581,0,0,0,4.176-3.034l-.552-.759a18.149,18.149,0,0,0,3.738-5.1l1.147.372a2.58,2.58,0,0,0,1.6-4.908Zm-18.967,9.509a12.9,12.9,0,1,1,12.9-12.9A12.917,12.917,0,0,1,210.347,221.593Z" transform="translate(-130.347 -128.679)"/><path d="M250.323,38.9a2.58,2.58,0,0,0,2.58-2.58V32.877a2.58,2.58,0,0,0-5.161,0v3.441A2.58,2.58,0,0,0,250.323,38.9Z" transform="translate(-170.323 -20.817)"/><path d="M181.735,47.588a2.58,2.58,0,1,0,4.908-1.594l-1.063-3.272a2.58,2.58,0,1,0-4.908,1.595Z" transform="translate(-124.125 -28.133)"/><path d="M122.446,78.7a2.581,2.581,0,0,0,4.176-3.034L124.6,72.887a2.58,2.58,0,1,0-4.176,3.033Z" transform="translate(-82.453 -49.366)"/><path d="M72.888,124.6l2.783,2.022a2.58,2.58,0,1,0,3.033-4.175l-2.783-2.022a2.58,2.58,0,1,0-3.033,4.175Z" transform="translate(-49.379 -82.439)"/><path d="M42.721,185.58l3.272,1.063a2.58,2.58,0,0,0,1.595-4.908l-3.272-1.063a2.58,2.58,0,0,0-1.595,4.908Z" transform="translate(-28.144 -124.112)"/><path d="M32.877,252.9h3.441a2.58,2.58,0,0,0,0-5.161H32.877a2.58,2.58,0,0,0,0,5.161Z" transform="translate(-20.829 -170.311)"/><path d="M75.672,369.574,72.888,371.6a2.58,2.58,0,1,0,3.033,4.175l2.783-2.022a2.58,2.58,0,1,0-3.033-4.175Z" transform="translate(-49.379 -253.731)"/><path d="M126.05,415.244a2.58,2.58,0,0,0-3.6.571l-2.022,2.783a2.581,2.581,0,0,0,4.176,3.034l2.022-2.783A2.582,2.582,0,0,0,126.05,415.244Z" transform="translate(-82.452 -285.129)"/><path d="M250.323,454.178a2.58,2.58,0,0,0-2.58,2.58V460.2a2.58,2.58,0,0,0,5.161,0v-3.441A2.58,2.58,0,0,0,250.323,454.178Z" transform="translate(-170.323 -312.235)"/><path d="M316.568,445.855a2.58,2.58,0,0,0-4.908,1.595l1.063,3.272a2.58,2.58,0,1,0,4.908-1.594Z" transform="translate(-214.179 -305.287)"/><path d="M373.75,415.816a2.58,2.58,0,0,0-4.176,3.033l2.022,2.783a2.581,2.581,0,0,0,4.176-3.034Z" transform="translate(-253.744 -285.13)"/><path d="M421.633,371.6l-2.783-2.022a2.58,2.58,0,1,0-3.033,4.176l2.783,2.022a2.58,2.58,0,1,0,3.033-4.176Z" transform="translate(-285.142 -253.731)"/><path d="M450.725,312.722l-3.272-1.063a2.58,2.58,0,1,0-1.595,4.908l3.272,1.063a2.58,2.58,0,0,0,1.595-4.908Z" transform="translate(-305.301 -214.165)"/><path d="M460.2,247.742h-3.441a2.58,2.58,0,1,0,0,5.161H460.2a2.58,2.58,0,1,0,0-5.161Z" transform="translate(-312.248 -170.31)"/><path d="M418.6,120.423l-2.783,2.022a2.58,2.58,0,1,0,3.033,4.175l2.783-2.022a2.58,2.58,0,1,0-3.033-4.175Z" transform="translate(-285.142 -82.439)"/><path d="M375.2,72.316a2.58,2.58,0,0,0-3.6.571l-2.022,2.783A2.581,2.581,0,0,0,373.75,78.7l2.022-2.783A2.581,2.581,0,0,0,375.2,72.316Z" transform="translate(-253.743 -49.366)"/></g></svg>