<svg xmlns="http://www.w3.org/2000/svg" width="160" height="159.998" viewBox="0 0 160 159.998"><defs><style>.a{fill:#fd5f6e;}.b{fill:#fbc566;}.c{fill:#fb7a5b;}.d{fill:#293560;}.e{fill:#feeccc;}.f{fill:#fff;}</style></defs><g transform="translate(0 -0.003)"><path class="a" d="M133.775,46.155C123.316,43,124.509,39.045,114.05,35.887s-11.652.8-22.111-2.362-9.266-7.111-19.725-10.268-11.653.8-22.113-2.363-9.267-7.111-19.727-10.268-11.653.8-22.114-2.363V19.046L111.486,85.682,8.261,152.318V163.1c10.459-3.158,11.653.8,22.112-2.363s9.265-7.111,19.724-10.268,11.653.8,22.112-2.363S81.475,141,91.935,137.84s11.653.795,22.113-2.363,9.267-7.111,19.727-10.268a41.3,41.3,0,0,0,0-79.053Z" transform="translate(-5.679 -5.679)"/><path class="b" d="M130.786,79.757,8.26,42.767V176.039l122.53-36.992Z" transform="translate(-5.678 -29.4)"/><path class="c" d="M192.4,156.907a31.148,31.148,0,0,0-5.482.492l-72.537,12.946,3.441,8.765-6.882,8.765,6.882,8.765-3.441,8.765,72.527,12.944a30.966,30.966,0,1,0,5.492-61.441Z" transform="translate(-76.274 -107.872)"/><path class="d" d="M238.383,189.939a20.764,20.764,0,0,0-3.668.331l-56.891,10.153,6.882,10.16-6.882,10.16L234.716,230.9a20.643,20.643,0,1,0,3.668-40.958Z" transform="translate(-122.254 -130.581)"/><path class="e" d="M364.042,228.476l-3.441,8.6,3.441,8.6a8.6,8.6,0,1,0,0-17.2Z" transform="translate(-247.913 -157.075)"/><path class="f" d="M344.085,237.079a8.6,8.6,0,0,0,8.6,8.6v-17.2A8.6,8.6,0,0,0,344.085,237.079Z" transform="translate(-236.558 -157.076)"/><path d="M347.01,242.584A11.183,11.183,0,1,0,335.827,231.4,11.2,11.2,0,0,0,347.01,242.584Zm0-17.2a6.022,6.022,0,1,1-6.022,6.022A6.029,6.029,0,0,1,347.01,225.379Z" transform="translate(-230.881 -151.398)"/><path d="M151.181,53.619a44.227,44.227,0,0,0-22.34-15.613A24.251,24.251,0,0,1,119.8,33.3a29.293,29.293,0,0,0-10.688-5.557,29.292,29.292,0,0,0-11.977-1.285,24.237,24.237,0,0,1-10.133-1.077,24.238,24.238,0,0,1-9.038-4.711,29.3,29.3,0,0,0-10.688-5.557A29.292,29.292,0,0,0,55.3,13.823a24.245,24.245,0,0,1-10.135-1.077,24.25,24.25,0,0,1-9.039-4.711A29.274,29.274,0,0,0,25.441,2.477,29.3,29.3,0,0,0,13.463,1.191,24.247,24.247,0,0,1,3.328.114,2.58,2.58,0,1,0,1.836,5.055,29.307,29.307,0,0,0,13.814,6.34,24.251,24.251,0,0,1,23.949,7.417a24.248,24.248,0,0,1,9.039,4.711,29.3,29.3,0,0,0,10.688,5.558,29.307,29.307,0,0,0,11.978,1.286,24.25,24.25,0,0,1,10.134,1.077,24.248,24.248,0,0,1,9.038,4.711,29.288,29.288,0,0,0,10.688,5.557A29.3,29.3,0,0,0,97.492,31.6a24.233,24.233,0,0,1,10.133,1.077,24.238,24.238,0,0,1,9.038,4.711,29.3,29.3,0,0,0,10.687,5.557,38.72,38.72,0,0,1,0,74.112,29.3,29.3,0,0,0-10.688,5.557,24.241,24.241,0,0,1-9.038,4.711A24.236,24.236,0,0,1,97.489,128.4a29.3,29.3,0,0,0-11.978,1.286,29.307,29.307,0,0,0-10.688,5.557,24.232,24.232,0,0,1-9.038,4.711,24.231,24.231,0,0,1-10.134,1.077,29.3,29.3,0,0,0-11.978,1.285,29.3,29.3,0,0,0-10.688,5.557,24.231,24.231,0,0,1-9.037,4.711,24.231,24.231,0,0,1-10.134,1.077,29.31,29.31,0,0,0-11.978,1.285,2.581,2.581,0,1,0,1.492,4.941,24.236,24.236,0,0,1,10.134-1.077,29.3,29.3,0,0,0,11.978-1.286,29.3,29.3,0,0,0,10.687-5.557,24.237,24.237,0,0,1,9.037-4.711A24.238,24.238,0,0,1,55.3,146.183,29.306,29.306,0,0,0,67.276,144.9a29.3,29.3,0,0,0,10.688-5.557A24.238,24.238,0,0,1,87,134.63a24.242,24.242,0,0,1,10.135-1.077,29.308,29.308,0,0,0,11.978-1.286A29.3,29.3,0,0,0,119.8,126.71,24.236,24.236,0,0,1,128.843,122a44.229,44.229,0,0,0,22.338-15.613,43.874,43.874,0,0,0,0-52.767Z" transform="translate(0 0)"/><path d="M.111,171.107a2.577,2.577,0,0,0,3.216,1.724l122.528-36.994a33.555,33.555,0,0,0-.007-64.227L3.327,34.618a2.581,2.581,0,1,0-1.492,4.941l105.1,31.73L37.658,83.654a2.581,2.581,0,0,0-1.949,3.483l2.9,7.39-5.97,7.6a2.581,2.581,0,0,0,0,3.187l5.97,7.6-2.9,7.39a2.581,2.581,0,0,0,1.949,3.483L68.84,129.36a2.58,2.58,0,1,0,.907-5.081l-28.083-5.012,2.291-5.834a2.58,2.58,0,0,0-.372-2.537l-5.631-7.171,5.631-7.171a2.58,2.58,0,0,0,.372-2.537l-2.291-5.835L111.1,75.789a28.387,28.387,0,1,1-.013,55.869l-31.183-5.565A2.58,2.58,0,1,0,79,131.173l27.937,4.986L1.836,167.89A2.581,2.581,0,0,0,.111,171.107Z" transform="translate(0 -23.722)"/><path d="M169.768,216.069a2.58,2.58,0,0,0,1.924,1.537l56.888,10.153a23.226,23.226,0,1,0,0-45.708l-56.891,10.153a2.581,2.581,0,0,0-1.683,3.988l5.9,8.713-5.9,8.713A2.582,2.582,0,0,0,169.768,216.069Zm11.4-12.611-4.653-6.87,52.982-9.456a18.065,18.065,0,1,1,0,35.547l-52.979-9.455,4.653-6.87A2.581,2.581,0,0,0,181.164,203.458Z" transform="translate(-116.575 -124.903)"/><circle cx="2.581" cy="2.581" r="2.581" transform="translate(12.903 126.801)"/><circle cx="2.581" cy="2.581" r="2.581" transform="translate(23.226 116.478)"/><circle cx="2.581" cy="2.581" r="2.581" transform="translate(23.226 31.163)"/></g></svg>