<svg xmlns="http://www.w3.org/2000/svg" width="160" height="160" viewBox="0 0 160 160"><defs><style>.a{fill:#fa9647;}.b{fill:#fbc566;}.c{fill:#feeccc;}.d{fill:#fff;}.e{fill:#fcd999;}</style></defs><path class="a" d="M353.1,239.765l-13.138-33.313L333.075,252.9l6.882,46.451L353.1,266.042,386.408,252.9Z" transform="translate(-228.989 -141.936)"/><path class="b" d="M239.765,239.765,206.452,252.9l33.313,13.138L252.9,299.355v-92.9Z" transform="translate(-141.936 -141.936)"/><path class="c" d="M347.527,327.57l-3.441,8.6,3.441,8.6a8.6,8.6,0,0,0,0-17.2Z" transform="translate(-236.559 -225.205)"/><path class="d" d="M327.57,336.172a8.6,8.6,0,0,0,8.6,8.6v-17.2A8.6,8.6,0,0,0,327.57,336.172Z" transform="translate(-225.205 -225.205)"/><path class="a" d="M154.9,41.571,141.764,8.258l-6.882,46.451,6.882,46.451L154.9,67.848l33.313-13.139Z" transform="translate(-92.731 -5.677)"/><path class="b" d="M41.571,41.571,8.258,54.709,41.571,67.848l13.138,33.313V8.258Z" transform="translate(-5.677 -5.677)"/><path class="c" d="M149.333,129.376l-3.441,8.6,3.441,8.6a8.6,8.6,0,0,0,0-17.2Z" transform="translate(-100.301 -88.946)"/><path class="d" d="M129.376,137.978a8.6,8.6,0,0,0,8.6,8.6v-17.2A8.6,8.6,0,0,0,129.376,137.978Z" transform="translate(-88.946 -88.946)"/><path class="b" d="M420.849,24.915,414.28,8.258,407.4,31.484l6.882,23.226,6.569-16.657,16.657-6.569Z" transform="translate(-280.086 -5.677)"/><path class="e" d="M371.754,24.915,355.1,31.484l16.657,6.569,6.569,16.657V8.258Z" transform="translate(-244.129 -5.677)"/><path class="b" d="M74.01,371.754,67.441,355.1l-6.882,23.226,6.882,23.226,6.569-16.657,16.657-6.569Z" transform="translate(-41.634 -244.129)"/><path class="e" d="M24.915,371.754,8.258,378.323l16.657,6.569,6.569,16.657V355.1Z" transform="translate(-5.677 -244.129)"/><path d="M294.624,244.825,262.354,232.1l-12.727-32.27a2.58,2.58,0,0,0-4.8,0L232.1,232.1l-32.27,12.727a2.58,2.58,0,0,0,0,4.8l32.27,12.727,12.727,32.27a2.58,2.58,0,0,0,4.8,0l12.727-32.27,32.27-12.727a2.58,2.58,0,0,0,0-4.8Zm-35.207,13.138a2.581,2.581,0,0,0-1.454,1.454l-10.737,27.226-10.738-27.226a2.581,2.581,0,0,0-1.454-1.454l-27.226-10.738,27.226-10.738a2.581,2.581,0,0,0,1.454-1.454l10.738-27.226,10.738,27.226a2.581,2.581,0,0,0,1.454,1.454l27.226,10.738Z" transform="translate(-136.258 -136.258)"/><path d="M330.5,319.312a11.258,11.258,0,0,0-1.578.113,2.581,2.581,0,0,0,.724,5.11,6.111,6.111,0,0,1,.854-.062,6.022,6.022,0,1,1-6.022,6.022,6.162,6.162,0,0,1,.062-.854,2.581,2.581,0,1,0-5.11-.724,11.182,11.182,0,1,0,11.07-9.6Z" transform="translate(-219.528 -219.527)"/><path d="M1.634,51.433,33.9,64.16,46.631,96.43a2.58,2.58,0,0,0,4.8,0L64.16,64.16,96.43,51.433a2.58,2.58,0,0,0,0-4.8L64.16,33.9,51.433,1.634a2.58,2.58,0,0,0-4.8,0L33.9,33.9,1.634,46.631a2.58,2.58,0,0,0,0,4.8ZM36.841,38.294a2.581,2.581,0,0,0,1.454-1.454L49.032,9.614,59.77,36.84a2.581,2.581,0,0,0,1.454,1.454L88.45,49.032,61.224,59.77a2.581,2.581,0,0,0-1.454,1.454L49.032,88.45,38.294,61.224A2.581,2.581,0,0,0,36.84,59.77L9.614,49.032Z"/><path d="M132.3,143.484a11.183,11.183,0,1,0-1.577-22.253,2.581,2.581,0,1,0,.724,5.11,6.113,6.113,0,0,1,.854-.062,6.022,6.022,0,1,1-6.022,6.022,6.161,6.161,0,0,1,.062-.854,2.581,2.581,0,1,0-5.11-.724,11.177,11.177,0,0,0,11.07,12.761Z" transform="translate(-83.269 -83.269)"/><path d="M348.472,28.207l15.614,6.158,6.158,15.614a2.58,2.58,0,0,0,4.8,0L381.2,34.365l15.614-6.158a2.58,2.58,0,0,0,0-4.8L381.2,17.248,375.045,1.634a2.581,2.581,0,0,0-4.8,0l-6.158,15.614-15.614,6.158a2.58,2.58,0,0,0,0,4.8Zm18.55-6.569a2.581,2.581,0,0,0,1.454-1.454l4.168-10.569,4.169,10.569a2.581,2.581,0,0,0,1.454,1.454l10.569,4.169-10.57,4.169a2.581,2.581,0,0,0-1.454,1.454L372.645,42l-4.169-10.57a2.581,2.581,0,0,0-1.454-1.454l-10.569-4.168Z" transform="translate(-238.451)"/><path d="M49.979,370.244l-15.614-6.158-6.158-15.614a2.58,2.58,0,0,0-4.8,0l-6.158,15.614L1.634,370.244a2.58,2.58,0,0,0,0,4.8L17.248,381.2l6.158,15.614a2.58,2.58,0,0,0,4.8,0L34.365,381.2l15.614-6.158a2.58,2.58,0,0,0,0-4.8Zm-18.55,6.569a2.581,2.581,0,0,0-1.454,1.454l-4.168,10.569-4.169-10.57a2.581,2.581,0,0,0-1.454-1.454L9.614,372.645l10.569-4.169a2.581,2.581,0,0,0,1.454-1.454l4.169-10.569,4.169,10.569a2.581,2.581,0,0,0,1.454,1.454L42,372.645Z" transform="translate(0 -238.451)"/></svg>