<svg xmlns="http://www.w3.org/2000/svg" width="140" height="140" viewBox="0 0 140 140"><defs><style>.a{fill:#4a8dc6;}.b{fill:#77aad4;}.c{fill:#a5c6e3;}.d{fill:#d2e3f1;}</style></defs><path class="a" d="M243.576,19.621,222.967,43.689v4.516a33.128,33.128,0,0,0,32.585-27.175A58.123,58.123,0,0,0,243.576,19.621Z" transform="translate(-161.999 -14.256)"/><path class="b" d="M175.974,20.2l.08-.6c-15.559-.243-32.086,5.419-46.021,16.7a33.046,33.046,0,0,0,25.412,11.882V43.668C165.543,43.669,174.177,33.8,175.974,20.2Z" transform="translate(-94.477 -14.235)"/><path class="c" d="M285.018,62.953a24.077,24.077,0,0,0-16.162-37.891,50.054,50.054,0,0,0-19.13-11.094c.025-.129.051-.257.074-.386a4.516,4.516,0,1,0-8.888-1.611,28.5,28.5,0,0,1-3.054,8.625L208.934,137.758A24.079,24.079,0,0,0,247.722,127.1a79.486,79.486,0,0,0,10.333-7.539,10.536,10.536,0,0,0,11.733-12.433C280.093,93.591,285.26,77.828,285.018,62.953Z" transform="translate(-151.804 -6.001)"/><path class="d" d="M130,101.2c1.192-14.133-3.1-26.863-12.082-35.846A42.716,42.716,0,0,0,92.055,53.374a28.614,28.614,0,0,1-47.035,4.575,4.516,4.516,0,0,0-6.928,5.8l.036.042q-1.483,1.344-2.919,2.775a80.716,80.716,0,0,0-9.433,11.328A28.615,28.615,0,0,0,12.8,119.739c.39,13.549,5.285,26.312,14.891,35.919,9.492,9.492,22.066,14.387,35.436,14.879A116.829,116.829,0,0,0,110.4,141.679C121.8,130.282,128.76,115.907,130,101.2Z" transform="translate(-6 -38.78)"/><path class="a" d="M267.011,360.6V390.71a15.054,15.054,0,0,0,0-30.108Z" transform="translate(-194 -262)"/><path class="b" d="M233.032,375.656c0-8.314-2.7-15.054-6.021-15.054a15.054,15.054,0,1,0,0,30.108C230.336,390.71,233.032,383.97,233.032,375.656Z" transform="translate(-154 -262)"/><path class="a" d="M415.656,101.849v30.108a15.054,15.054,0,0,0,0-30.108Z" transform="translate(-302 -74)"/><path class="b" d="M381.676,116.9c0-8.314-2.7-15.054-6.022-15.054a15.054,15.054,0,1,0,0,30.108C378.981,131.957,381.676,125.217,381.676,116.9Z" transform="translate(-261.999 -74)"/><path class="a" d="M112.86,167.914v39.14a19.57,19.57,0,1,0,0-39.14Z" transform="translate(-82 -122)"/><path class="b" d="M71.4,187.484c0-10.808-4.718-19.57-10.538-19.57a19.57,19.57,0,0,0,0,39.14C66.68,207.054,71.4,198.292,71.4,187.484Z" transform="translate(-30 -122)"/><path d="M210.613,357.436a17.351,17.351,0,0,0-4.272,7.05,2.258,2.258,0,1,0,4.309,1.351,12.643,12.643,0,0,1,3.157-5.207,12.8,12.8,0,1,1,0,18.1,12.645,12.645,0,0,1-3.157-5.207,2.258,2.258,0,1,0-4.309,1.351,17.311,17.311,0,1,0,4.272-17.434Z" transform="translate(-149.844 -256.021)"/><path d="M359.258,98.684a17.35,17.35,0,0,0-4.272,7.05,2.258,2.258,0,1,0,4.309,1.351,12.644,12.644,0,0,1,3.157-5.207,12.8,12.8,0,1,1,0,18.1,12.645,12.645,0,0,1-3.157-5.207,2.258,2.258,0,1,0-4.309,1.351,17.311,17.311,0,1,0,4.272-17.434Z" transform="translate(-257.843 -68.022)"/><path d="M140,42.9a26.347,26.347,0,0,0-21.923-25.969A51.992,51.992,0,0,0,100.317,6.387,6.787,6.787,0,0,0,94.761.109,6.861,6.861,0,0,0,93.55,0a6.763,6.763,0,0,0-5.924,3.5c-16.144-1.834-33.55,2.824-48.3,12.937a6.777,6.777,0,0,0-10.066,8.142c-.568.536-1.12,1.072-1.65,1.6a83.264,83.264,0,0,0-9.324,11.108A30.875,30.875,0,0,0,4.567,81.647C5.124,95.944,10.626,109,20.1,118.475c9.456,9.456,21.945,14.807,36.16,15.5A26.337,26.337,0,0,0,97.793,122.6a81.965,81.965,0,0,0,9.2-6.7q.322.016.644.016a12.792,12.792,0,0,0,12.718-14.179c9.848-13.256,15.2-28.845,15.125-44.082A26.145,26.145,0,0,0,140,42.9ZM86.351,7.912A26.314,26.314,0,0,1,60.968,27.175,26.278,26.278,0,0,1,42.584,19.7C56.053,10.677,71.746,6.453,86.351,7.912Zm29.835,91.85a2.258,2.258,0,0,0-.421,1.792,8.277,8.277,0,0,1-8.129,9.842,8.417,8.417,0,0,1-1.091-.071,2.253,2.253,0,0,0-1.766.526,77.421,77.421,0,0,1-10.038,7.325,2.26,2.26,0,0,0-.97,1.229,21.82,21.82,0,0,1-35.15,9.656,2.256,2.256,0,0,0-1.407-.56c-13.382-.492-25.112-5.409-33.922-14.218-8.918-8.919-13.839-20.81-14.231-34.387A2.259,2.259,0,0,0,8.7,79.737a26.357,26.357,0,0,1,11.95-38.546,2.26,2.26,0,0,0,.985-.8,78.69,78.69,0,0,1,9.169-11.011c.891-.891,1.846-1.8,2.839-2.7a2.258,2.258,0,0,0,.217-3.122l-.037-.043a2.258,2.258,0,1,1,3.464-2.9,30.8,30.8,0,0,0,23.68,11.073A30.823,30.823,0,0,0,91.332,6.372,2.255,2.255,0,0,1,93.55,4.516a2.289,2.289,0,0,1,.406.037,2.261,2.261,0,0,1,1.819,2.625c-.013.072-.027.145-.042.217l-.028.145a2.258,2.258,0,0,0,1.535,2.579,47.678,47.678,0,0,1,18.272,10.594,2.258,2.258,0,0,0,1.224.584A21.911,21.911,0,0,1,135.484,42.9a21.664,21.664,0,0,1-4.1,12.729,2.259,2.259,0,0,0-.425,1.355C131.2,71.743,125.952,86.934,116.186,99.762Z"/><circle cx="2.258" cy="2.258" r="2.258" transform="translate(67.742 67.742)"/><circle cx="2.258" cy="2.258" r="2.258" transform="translate(76.774 58.71)"/><circle cx="2.258" cy="2.258" r="2.258" transform="translate(100.86 87.312)"/><circle cx="2.258" cy="2.258" r="2.258" transform="translate(37.634 114.409)"/><path d="M70.331,169.292A2.258,2.258,0,0,0,69.6,172.4a17.312,17.312,0,1,1-5.653-5.653,2.258,2.258,0,0,0,2.374-3.842,21.828,21.828,0,1,0,7.121,7.121A2.258,2.258,0,0,0,70.331,169.292Z" transform="translate(-24 -116)"/></svg>