<svg xmlns="http://www.w3.org/2000/svg" width="160" height="160" viewBox="0 0 160 160"><defs><style>.a{fill:#fa9647;}.b{fill:#f9b233;}.c{fill:#fd5f6e;}.d{fill:#feeccc;}.e{fill:#fff;}</style></defs><path class="a" d="M88.086,145.892a6.882,6.882,0,0,0-6.882,6.882v6.882l-6.882,77.419,20.645-37.849V152.774A6.882,6.882,0,0,0,88.086,145.892Z" transform="translate(-51.097 -100.301)"/><path class="b" d="M28.9,71.914a6.882,6.882,0,0,1-6.882-6.882V15.14a6.882,6.882,0,1,0-13.763,0V104.6l6.882,17.2,20.645,10.323v-67.1A6.882,6.882,0,0,1,28.9,71.914Z" transform="translate(-5.677 -5.677)"/><path class="c" d="M88.086,323.441,81.2,316.559l-6.882,48.172a20.645,20.645,0,0,0,20.645-20.645V316.559Z" transform="translate(-51.097 -217.634)"/><path class="a" d="M28.9,323.441l-6.882-6.882-6.882,6.882-6.882-6.882v27.527A20.645,20.645,0,0,0,28.9,364.731c3.8,0,6.882-9.243,6.882-20.645V316.559Z" transform="translate(-5.677 -217.634)"/><path class="d" d="M66.753,371.613l-3.441,10.323,3.441,10.323a10.323,10.323,0,0,0,0-20.645Z" transform="translate(-43.527 -255.484)"/><path class="e" d="M41.29,381.935a10.323,10.323,0,0,0,10.323,10.323V371.612A10.323,10.323,0,0,0,41.29,381.935Z" transform="translate(-28.387 -255.483)"/><path class="b" d="M233.979,93.591a6.882,6.882,0,0,1-13.763,0V86.709a6.882,6.882,0,1,0-13.763,0v25.807l10.736,27.527h23.673Z" transform="translate(-141.936 -54.881)"/><path class="a" d="M301.419,8.258a6.882,6.882,0,0,0-6.882,6.882v75.7L308.3,63.312V15.14A6.881,6.881,0,0,0,301.419,8.258Z" transform="translate(-202.494 -5.677)"/><path class="c" d="M286.279,191.312,279.4,184.43,272.516,232.6a20.645,20.645,0,0,0,20.645-20.645V184.43Z" transform="translate(-187.355 -126.796)"/><path class="a" d="M227.1,191.312l-6.882-6.882-6.882,6.882-6.882-6.882v27.527A20.645,20.645,0,0,0,227.1,232.6c3.8,0,6.882-9.243,6.882-20.645V184.43Z" transform="translate(-141.935 -126.796)"/><path class="d" d="M264.946,239.484l-3.441,10.322,3.441,10.323a10.323,10.323,0,0,0,0-20.645Z" transform="translate(-179.785 -164.645)"/><path class="e" d="M239.484,249.806a10.323,10.323,0,0,0,10.322,10.322V239.483A10.323,10.323,0,0,0,239.484,249.806Z" transform="translate(-164.645 -164.645)"/><path class="b" d="M399.139,161.033a6.882,6.882,0,1,1-13.764,0V147.27a6.882,6.882,0,0,0-13.763,0v58.495l10.736,27.527h23.673Z" transform="translate(-255.483 -96.517)"/><path class="a" d="M466.581,8.258A6.882,6.882,0,0,0,459.7,15.14V142.452l13.763-27.527V15.14A6.882,6.882,0,0,0,466.581,8.258Z" transform="translate(-316.043 -5.677)"/><path class="c" d="M451.44,356.473l-6.882-6.882-6.882,48.172a20.645,20.645,0,0,0,20.645-20.645V349.591Z" transform="translate(-300.903 -240.344)"/><path class="a" d="M392.257,356.473l-6.882-6.882-6.882,6.882-6.882-6.882v27.527a20.645,20.645,0,0,0,20.645,20.645c3.8,0,6.882-9.243,6.882-20.645V349.591Z" transform="translate(-255.483 -240.344)"/><path class="d" d="M430.107,404.645l-3.441,10.322,3.441,10.323a10.322,10.322,0,1,0,0-20.645Z" transform="translate(-293.333 -278.193)"/><path class="e" d="M404.645,414.967a10.323,10.323,0,0,0,10.322,10.323V404.644A10.323,10.323,0,0,0,404.645,414.967Z" transform="translate(-278.193 -278.193)"/><circle cx="2.581" cy="2.581" r="2.581" transform="translate(34.409 32.688)"/><circle cx="2.581" cy="2.581" r="2.581" transform="translate(34.409 22.366)"/><path d="M36.989,43.011a9.473,9.473,0,0,0-9.462,9.462v6.882a4.3,4.3,0,0,1-8.6,0V19.785a2.581,2.581,0,0,0-5.161,0v39.57a9.462,9.462,0,1,0,18.925,0V52.473a4.3,4.3,0,1,1,8.6,0v73.978a18.064,18.064,0,1,1-36.129,0V9.463a4.3,4.3,0,1,1,8.6,0,2.581,2.581,0,1,0,5.161,0A9.462,9.462,0,1,0,0,9.463V126.452a23.226,23.226,0,0,0,46.452,0V52.473A9.474,9.474,0,0,0,36.989,43.011Z"/><path d="M45.936,389.161a12.9,12.9,0,1,0-12.9-12.9A12.918,12.918,0,0,0,45.936,389.161Zm0-20.645a7.742,7.742,0,1,1-7.742,7.742A7.751,7.751,0,0,1,45.936,368.516Z" transform="translate(-22.71 -249.807)"/><circle cx="2.581" cy="2.581" r="2.581" transform="translate(68.817 12.043)"/><path d="M235.182,0a9.473,9.473,0,0,0-9.462,9.463,2.581,2.581,0,1,0,5.161,0,4.3,4.3,0,0,1,8.6,0v75.7a18.064,18.064,0,0,1-36.129,0V31.828a4.3,4.3,0,1,1,8.6,0V38.71a9.463,9.463,0,1,0,18.925,0V19.785a2.581,2.581,0,1,0-5.161,0V38.71a4.3,4.3,0,1,1-8.6,0V31.828a9.463,9.463,0,0,0-18.925,0V85.161a23.226,23.226,0,1,0,46.452,0V9.463A9.473,9.473,0,0,0,235.182,0Z" transform="translate(-136.258)"/><path d="M244.129,231.226a12.9,12.9,0,1,0,12.9,12.9A12.917,12.917,0,0,0,244.129,231.226Zm0,20.645a7.742,7.742,0,1,1,7.742-7.742A7.751,7.751,0,0,1,244.129,251.871Z" transform="translate(-158.968 -158.968)"/><circle cx="2.581" cy="2.581" r="2.581" transform="translate(120.43 30.968)"/><circle cx="2.581" cy="2.581" r="2.581" transform="translate(120.43 20.645)"/><path d="M396.387,409.29a12.9,12.9,0,1,0,12.9-12.9A12.917,12.917,0,0,0,396.387,409.29Zm20.645,0a7.742,7.742,0,1,1-7.742-7.742A7.751,7.751,0,0,1,417.032,409.29Z" transform="translate(-272.516 -272.516)"/><path d="M400.343,0a9.473,9.473,0,0,0-9.463,9.463V54.194a2.581,2.581,0,0,0,5.161,0V9.463a4.3,4.3,0,1,1,8.6,0V136.774a18.064,18.064,0,0,1-36.129,0V50.753a4.3,4.3,0,1,1,8.6,0V64.516a9.462,9.462,0,0,0,18.925,0,2.581,2.581,0,1,0-5.161,0,4.3,4.3,0,1,1-8.6,0V50.753a9.462,9.462,0,1,0-18.925,0v86.022a23.226,23.226,0,1,0,46.452,0V9.463A9.473,9.473,0,0,0,400.343,0Z" transform="translate(-249.806)"/></svg>