<svg xmlns="http://www.w3.org/2000/svg" width="139.973" height="140" viewBox="0 0 139.973 140"><defs><style>.a{fill:#1d71b8;}.b{fill:#134a79;}.c{fill:#185e98;}.d{fill:#4a8dc6;}.e{fill:#77aad4;}.f{fill:#fa9647;}.g{fill:#f9b233;}.h{fill:#fd5f6e;}.i{fill:#fb7a5b;}.j{fill:#fff;}.k{fill:#ff2796;}.l{fill:#fe4382;}</style></defs><g transform="translate(-0.048)"><path class="a" d="M15.076,15.125c-11.7,11.7-7.81,35.81,7.707,60.915L75.991,22.832C50.886,7.314,26.775,3.425,15.076,15.125Z" transform="translate(-5.969 -6.04)"/><path class="b" d="M309.16,256l-53.209,53.209c25.105,15.517,49.216,19.406,60.916,7.707S324.677,281.105,309.16,256Z" transform="translate(-185.929 -186)"/><path class="c" d="M316.867,15.125c-11.7-11.7-35.811-7.81-60.916,7.707L309.16,76.04C324.677,50.935,328.566,26.824,316.867,15.125Z" transform="translate(-185.929 -6.04)"/><path class="d" d="M22.783,256c-15.517,25.105-19.406,49.216-7.707,60.916s35.811,7.81,60.916-7.707Z" transform="translate(-5.969 -186)"/><path class="e" d="M167.777,114.617a164.955,164.955,0,0,0-23.642-29.567,164.974,164.974,0,0,0-29.567-23.642A171.035,171.035,0,0,0,61.36,114.617,164.954,164.954,0,0,0,85,144.184a164.974,164.974,0,0,0,29.567,23.642,164.929,164.929,0,0,0,29.567-23.642A164.976,164.976,0,0,0,167.777,114.617Z" transform="translate(-44.547 -44.618)"/><path class="f" d="M255.951,195.454v33.111a16.556,16.556,0,0,0,0-33.111Z" transform="translate(-185.929 -142.01)"/><path class="g" d="M211.961,195.454a16.556,16.556,0,0,0,0,33.111c4.156,0,7.525-7.412,7.525-16.556S216.117,195.454,211.961,195.454Z" transform="translate(-141.939 -142.01)"/><path class="h" d="M139.823,114.845l-3.01,9.03,3.01,9.03a9.03,9.03,0,0,0,0-18.061Z" transform="translate(-99.368 -83.442)"/><path class="i" d="M114.8,123.875a9.03,9.03,0,0,0,9.03,9.03V114.844A9.031,9.031,0,0,0,114.8,123.875Z" transform="translate(-83.371 -83.442)"/><g transform="translate(108.49 17.985)"><circle class="j" cx="2.257" cy="2.257" r="2.257" transform="translate(0 9.03)"/><circle class="j" cx="2.257" cy="2.257" r="2.257" transform="translate(9.03)"/></g><path class="k" d="M138.489,325.6l-3.512,10.536,3.512,10.536a10.536,10.536,0,0,0,0-21.071Z" transform="translate(-98.034 -236.57)"/><path class="l" d="M109.292,336.137a10.536,10.536,0,0,0,10.536,10.536V325.6A10.535,10.535,0,0,0,109.292,336.137Z" transform="translate(-79.372 -236.57)"/><g transform="translate(18.008 17.985)"><circle class="j" cx="2.257" cy="2.257" r="2.257" transform="translate(0 99.514)"/><circle class="j" cx="2.257" cy="2.257" r="2.257" transform="translate(90.481 90.484)"/><circle class="j" cx="2.257" cy="2.257" r="2.257" transform="translate(99.511 99.514)"/><circle class="j" cx="2.257" cy="2.257" r="2.257"/></g><path d="M187.71,211.785l-.53.729a2.258,2.258,0,1,0,3.653,2.654l.526-.725a18.671,18.671,0,0,0,6.89,2.242v.893a2.257,2.257,0,1,0,4.515,0v-.893a18.675,18.675,0,0,0,6.89-2.242l.526.725a2.257,2.257,0,1,0,3.652-2.654l-.53-.729a18.9,18.9,0,0,0,4.263-5.856l.85.276a2.258,2.258,0,0,0,1.4-4.294l-.847-.275a18.754,18.754,0,0,0,0-7.248l.847-.275a2.258,2.258,0,0,0-1.4-4.294l-.85.276a18.907,18.907,0,0,0-4.263-5.856l.53-.729a2.258,2.258,0,0,0-3.653-2.654l-.526.725a18.671,18.671,0,0,0-6.89-2.242v-.893a2.257,2.257,0,1,0-4.515,0v.893a18.671,18.671,0,0,0-6.89,2.242l-.526-.725a2.258,2.258,0,0,0-3.653,2.654l.53.729a18.9,18.9,0,0,0-4.263,5.856l-.85-.276a2.258,2.258,0,1,0-1.4,4.294l.847.275a18.75,18.75,0,0,0,0,7.248l-.847.275a2.257,2.257,0,1,0,1.4,4.294l.85-.276A18.9,18.9,0,0,0,187.71,211.785Zm12.8-28.071a14.3,14.3,0,1,1-14.3,14.3A14.314,14.314,0,0,1,200.507,183.714Z" transform="translate(-130.485 -128.013)"/><path d="M125.89,70a113.981,113.981,0,0,0,10.246-21.428c6.22-17.951,4.94-32.542-3.6-41.084-7.974-7.974-21.426-9.622-37.88-4.642a109.851,109.851,0,0,0-24.62,11.294A113.988,113.988,0,0,0,48.594,3.886c-17.951-6.22-32.542-4.94-41.084,3.6-7.878,7.878-9.584,21.14-4.8,37.342A109.247,109.247,0,0,0,14.179,70.007,105.979,105.979,0,0,0,1.962,97.877c-3.82,14.937-1.85,27.237,5.548,34.635,4.977,4.977,12,7.488,20.556,7.488a63.513,63.513,0,0,0,20.529-3.886,113.981,113.981,0,0,0,21.428-10.246c15.255,9.241,29.92,14.107,41.894,14.107,8.465,0,15.587-2.431,20.619-7.463,8.542-8.542,9.821-23.133,3.6-41.084A113.981,113.981,0,0,0,125.89,70ZM95.962,7.167C110.746,2.692,122.6,3.94,129.341,10.68c7.253,7.253,8.151,20.185,2.528,36.413a107.37,107.37,0,0,1-8.682,18.614,169.8,169.8,0,0,0-22-26.871A169.843,169.843,0,0,0,74.324,16.841,103.1,103.1,0,0,1,95.962,7.167ZM47.116,131.848c-16.229,5.623-29.16,4.725-36.413-2.528C.436,119.053,3.321,97.551,16.87,74.283A163.294,163.294,0,0,0,30.223,91.9a12.825,12.825,0,1,0,3.307-3.079A157.283,157.283,0,0,1,19.475,70,154.365,154.365,0,0,1,30.1,55.262a2.258,2.258,0,1,0-3.5-2.848,158.881,158.881,0,0,0-9.723,13.3A102.39,102.39,0,0,1,7.038,43.551C2.746,29.009,4.048,17.335,10.7,10.68c7.253-7.253,20.185-8.151,36.413-2.528a107.357,107.357,0,0,1,18.627,8.689A164.233,164.233,0,0,0,46.961,31.217a11.289,11.289,0,1,0,3.1,3.291A158.157,158.157,0,0,1,70.036,19.445,163.839,163.839,0,0,1,97.993,42.029,163.839,163.839,0,0,1,120.585,70,163.851,163.851,0,0,1,97.993,97.97a163.865,163.865,0,0,1-27.953,22.582,151.914,151.914,0,0,1-13.6-9.7,2.258,2.258,0,0,0-2.816,3.53c4.038,3.221,8.086,6.15,12.107,8.784A107.4,107.4,0,0,1,47.116,131.848ZM40.455,91.289a8.278,8.278,0,1,1-8.278,8.278A8.287,8.287,0,0,1,40.455,91.289Zm6.773-50.856a6.773,6.773,0,1,1-6.773-6.773A6.78,6.78,0,0,1,47.228,40.433Zm82.113,88.886c-10.2,10.2-31.76,7.328-55.01-6.166a169.853,169.853,0,0,0,26.854-21.991,169.856,169.856,0,0,0,22-26.871,107.379,107.379,0,0,1,8.682,18.614C137.492,109.134,136.594,122.066,129.341,129.319Z" transform="translate(0 0)"/></g></svg>