<svg xmlns="http://www.w3.org/2000/svg" width="103.016" height="27.202" viewBox="0 0 103.016 27.202"><defs><style>.a{fill:#fff;}</style></defs><g transform="translate(-104.944 -27.26)"><path class="a" d="M3.62-10.64V0H1.2V-13.2a1.653,1.653,0,0,1,.35-1.11,1.184,1.184,0,0,1,.95-.41,1.275,1.275,0,0,1,.54.12,1.937,1.937,0,0,1,.54.4L13.84-4.02V-14.66h2.42V-1.34a1.646,1.646,0,0,1-.35,1.12,1.152,1.152,0,0,1-.91.4,1.624,1.624,0,0,1-1.16-.54ZM33.88,0,31.7-3.66H24.82l1.2-2.06h4.46l-3.24-5.44L20.64,0h-2.9L26.1-13.92a1.925,1.925,0,0,1,.52-.6,1.184,1.184,0,0,1,.72-.22,1.141,1.141,0,0,1,.71.22,1.99,1.99,0,0,1,.51.6L36.94,0Zm9-4.04V-6.5h5.84a2.8,2.8,0,0,0,2.09-.76,2.724,2.724,0,0,0,.75-2,2.682,2.682,0,0,0-.75-2A2.847,2.847,0,0,0,48.72-12h-7.7V0H38.5V-14.54H48.72a6.4,6.4,0,0,1,2.25.37,4.673,4.673,0,0,1,1.67,1.04,4.442,4.442,0,0,1,1.04,1.63,6.116,6.116,0,0,1,.36,2.16,6.138,6.138,0,0,1-.36,2.15,4.721,4.721,0,0,1-1.04,1.67,4.686,4.686,0,0,1-1.67,1.09,6.1,6.1,0,0,1-2.25.39ZM68.9,0,66.72-3.66H59.84l1.2-2.06H65.5l-3.24-5.44L55.66,0h-2.9l8.36-13.92a1.925,1.925,0,0,1,.52-.6,1.184,1.184,0,0,1,.72-.22,1.141,1.141,0,0,1,.71.22,1.99,1.99,0,0,1,.51.6L71.96,0Z" transform="translate(136 42)"/><path class="a" d="M1.448-4.256V0H.48V-5.28a.661.661,0,0,1,.14-.444A.474.474,0,0,1,1-5.888a.51.51,0,0,1,.216.048.775.775,0,0,1,.216.16l4.1,4.072V-5.864H6.5V-.536a.658.658,0,0,1-.14.448A.461.461,0,0,1,6,.072a.65.65,0,0,1-.464-.216ZM7.488,0V-5.816h4.936V-4.8H8.5V0ZM9.24-2.408V-3.3h2.944v.888ZM15.32,0V-4.8H13.112V-5.816h5.432V-4.8H16.336V0Zm3.9,0V-1.016h4.36a.879.879,0,0,0,.628-.208.724.724,0,0,0,.22-.552.7.7,0,0,0-.22-.564.939.939,0,0,0-.628-.188H20.9a2.1,2.1,0,0,1-.74-.124A1.6,1.6,0,0,1,19.6-3a1.513,1.513,0,0,1-.352-.524,1.742,1.742,0,0,1-.124-.664,1.793,1.793,0,0,1,.116-.652,1.393,1.393,0,0,1,.344-.516,1.627,1.627,0,0,1,.564-.34,2.209,2.209,0,0,1,.768-.124H25.1V-4.8H20.92a.745.745,0,0,0-.544.188.7.7,0,0,0-.192.524.679.679,0,0,0,.2.52.746.746,0,0,0,.532.184h2.664a1.947,1.947,0,0,1,1.348.416,1.62,1.62,0,0,1,.46,1.264,2,2,0,0,1-.112.68,1.467,1.467,0,0,1-.336.54,1.535,1.535,0,0,1-.564.356,2.255,2.255,0,0,1-.8.128Z" transform="translate(136 52)"/></g><g transform="translate(-108.299 -137.595)"><g transform="translate(1.944 1.944)"><path class="a" d="M387.378,877.984c-.12.069-.241.135-.364.2a30.8,30.8,0,0,1-5.787,2.388c.172-1.326.359-2.626.626-3.905.074-.366.155-.729.241-1.091a1.025,1.025,0,0,0,.437-.187,23.365,23.365,0,0,0,2.174,1.348A24.19,24.19,0,0,0,387.378,877.984Z" transform="translate(-268.374 -721.625)"/><path class="a" d="M367.325,789.658c-.022.076-.044.155-.064.233a1.029,1.029,0,0,0-.344.125c-.184-.152-.361-.307-.538-.467C366.693,789.594,367.008,789.631,367.325,789.658Z" transform="translate(-253.724 -637.362)"/><path class="a" d="M124,158.048a.669.669,0,0,1-1.306-.2,20.968,20.968,0,0,1-3.321-.909h0c-.259.14-.521.271-.785.4a19.922,19.922,0,0,1-5.554,1.737s0-.011,0-.016a.014.014,0,0,1-.009,0,14.828,14.828,0,0,1-.07-3.688c.036-.354.081-.708.142-1.06a.985.985,0,0,1-.429-.814.945.945,0,0,1,.065-.35c-.429-.365-.837-.747-1.229-1.148l0,0a13.1,13.1,0,0,1-4.949-2.188,15.44,15.44,0,0,0,4.408,1.608A15.2,15.2,0,0,1,109.186,149l-.061-.108a.9.9,0,0,1-.208.025.936.936,0,0,1-.58-1.669,9.922,9.922,0,0,1-.4-1.232,9.571,9.571,0,0,1-.266-1.595,8.254,8.254,0,0,1,.038-1.6,10.219,10.219,0,0,0,.147,1.579,10.075,10.075,0,0,0,.4,1.523,10.5,10.5,0,0,0,.462,1.146.979.979,0,0,1,.2-.02.935.935,0,0,1,.663,1.593l.054.086a16.936,16.936,0,0,0,1.954,2.441c.142.149.289.3.435.44.214.029.429.054.643.077.347.032.7.056,1.047.068,0-.011.007-.02.009-.032a17.429,17.429,0,0,1,1.514-3.422,15,15,0,0,1,1.617-2.281.755.755,0,1,1,.512.2.706.706,0,0,1-.316-.072c-.44.812-.855,1.622-1.223,2.454a32.318,32.318,0,0,0-1.232,3.163q.629,0,1.259-.059a17.859,17.859,0,0,0,3.14-.526c.4-.1.8-.217,1.187-.343,0-.032,0-.065,0-.1a1.06,1.06,0,0,1,.81-1.031c0-.192-.009-.386-.016-.578-.007-.176-.014-.352-.023-.528a1.685,1.685,0,0,1-.345-3.264c-.029-.174-.061-.345-.095-.519l-.1-.532-.12-.528c-.07-.354-.178-.7-.266-1.049s-.2-.695-.311-1.038-.226-.677-.359-1.006a.7.7,0,0,1-.138.011.961.961,0,0,1-.932-.729,25.568,25.568,0,0,0-3.81-.239,22.511,22.511,0,0,0-5.089.659A12,12,0,0,0,113,159.072a.047.047,0,0,0,.014.009.068.068,0,0,0,.023.009v0a12.006,12.006,0,0,0,12.218-.936C124.833,158.133,124.418,158.1,124,158.048Zm-5.646-21.713a11.977,11.977,0,0,0-8.956,4.011,14.815,14.815,0,0,1,5.037-1.295,18.819,18.819,0,0,1,4.015.077.825.825,0,0,1,.165-.167c-.047-.1-.1-.2-.147-.3-.325-.652-.7-1.275-1.094-1.9a12.678,12.678,0,0,1,1.381,1.733c.063.1.124.2.185.3a.909.909,0,0,1,.273-.041.96.96,0,0,1,.911.659,19.8,19.8,0,0,1,4.654,1.59,16.289,16.289,0,0,1,3.88,2.617.469.469,0,0,1,.255-.074.485.485,0,0,1,.208.925,11.909,11.909,0,0,1-1.7,5.06c-.129.214-.255.431-.386.643l-.429.616c-.138.208-.3.4-.451.6s-.3.4-.469.584c-.332.372-.659.751-1.02,1.1-.178.174-.35.356-.535.523l-.557.5a21.443,21.443,0,0,1-3.621,2.538,26.675,26.675,0,0,0,2.8.938.66.66,0,0,1,.6-.386.67.67,0,0,1,.67.67.191.191,0,0,1,0,.036c.413.092.83.178,1.247.253a12,12,0,0,0-6.923-21.8Zm10.56,8.178a.772.772,0,0,1-.1-.009,12.674,12.674,0,0,1-3.731,4.487,15.643,15.643,0,0,1-2.788,1.7.279.279,0,0,1,0,.043,1.06,1.06,0,0,1-1.06,1.06h-.011a16.841,16.841,0,0,1-.39,1.705c.05-.584.09-1.166.117-1.746a1.04,1.04,0,0,1-.5-.314c-.424.147-.855.275-1.29.39a17.722,17.722,0,0,1-3.262.51c-.5.025-.995.034-1.493.02-.038.126-.077.253-.113.379v0a.984.984,0,0,1,.354.758.923.923,0,0,1-.034.253c.623.442,1.268.85,1.931,1.232a25.39,25.39,0,0,0,2.729,1.356l.341-.2c.422-.241.821-.519,1.225-.787.2-.133.4-.277.593-.42l.589-.429.564-.458c.189-.151.377-.3.555-.467a20.878,20.878,0,0,0,3.842-4.327,14.1,14.1,0,0,0,2.057-4.753A.429.429,0,0,1,128.916,144.513Zm-.485-.485a.48.48,0,0,1,.138-.338,25.36,25.36,0,0,0-4.056-2.089,26.461,26.461,0,0,0-4.5-1.354,1.016,1.016,0,0,1-.18.2,17.03,17.03,0,0,1,.8,2.078c.106.356.214.713.3,1.076l.131.541.108.548q.051.277.095.555a1.684,1.684,0,0,1,.244,3.327c0,.185,0,.37-.013.553s-.014.384-.027.573a1.059,1.059,0,0,1,.611.393,17.025,17.025,0,0,0,2.691-1.525,14.5,14.5,0,0,0,3.961-4.09A.483.483,0,0,1,128.431,144.027Z" transform="translate(0)"/></g><g transform="translate(110.088 141.355)"><g transform="translate(0 0)"><path class="a" d="M229.2,301.425c-.006.006-.008.011-.017.02l-.056.014Z" transform="translate(-229.128 -301.425)"/></g></g><g transform="translate(114.701 164.76)"><g transform="translate(0 0)"><path class="a" d="M380.867,1071.2c0,.006,0,.014,0,.02s0,.011,0,.017,0-.011,0-.017,0-.011,0-.017A.017.017,0,0,0,380.867,1071.2Z" transform="translate(-380.856 -1071.198)"/></g></g><g transform="translate(129.989 163.603)"><g transform="translate(0 0)"><path class="a" d="M883.878,1033.186l-.237-.011a.159.159,0,0,0,.037-.025C883.745,1033.163,883.81,1033.174,883.878,1033.186Z" transform="translate(-883.641 -1033.149)"/></g></g></g></svg>